<svg xmlns="http://www.w3.org/2000/svg" xmlns:xlink="http://www.w3.org/1999/xlink" version="1.1" id="Layer_1" x="0px" y="0px" width="77.2727272727px" height="100px" viewBox="0 0 612 792" enable-background="new 0 0 612 792" xml:space="preserve">
<path fill="#000000" d="M372.728,162H126v468h360V275.272L372.728,162z M378,192.728L455.272,270H378V192.728z M144,612V180h216v108  h108v324H144z"/>
<path fill="#000000" d="M396,432v-36h-20.278c-1.704-6.596-4.334-12.819-7.722-18.545l14.367-14.367l-25.455-25.455L342.545,352  c-5.726-3.388-11.949-6.018-18.545-7.722V324h-36v20.278c-6.596,1.704-12.819,4.334-18.545,7.722l-14.367-14.367l-25.455,25.455  L244,377.455c-3.388,5.726-6.018,11.949-7.722,18.545H216v36h20.278c1.704,6.596,4.334,12.819,7.722,18.545l-14.367,14.367  l25.455,25.455L269.455,476c5.726,3.388,11.949,6.018,18.545,7.722V504h36v-20.278c6.596-1.704,12.819-4.334,18.545-7.722  l14.367,14.367l25.455-25.455L368,450.545c3.388-5.726,6.018-11.949,7.722-18.545H396z M306,450c-19.851,0-36-16.149-36-36  s16.149-36,36-36s36,16.149,36,36S325.851,450,306,450z"/>
</svg>