<svg xmlns="http://www.w3.org/2000/svg" xmlns:xlink="http://www.w3.org/1999/xlink" version="1.1" id="Layer_1" x="0px" y="0px" width="100px" height="100px" viewBox="0 0 100 100" enable-background="new 0 0 100 100" xml:space="preserve">
<path d="M88.649,9.08V5.207c-2.591,0-4.694-2.331-4.694-5.207h-3.493c0,2.876-2.104,5.207-4.695,5.207  c-2.595,0-4.697-2.331-4.697-5.207h-3.492c0,2.876-2.102,5.207-4.696,5.207c-2.592,0-4.693-2.331-4.693-5.207h-3.495  c0,2.876-2.101,5.207-4.695,5.207c-2.593,0-4.697-2.331-4.697-5.207H41.81c0,2.876-2.102,5.207-4.696,5.207  c-2.594,0-4.694-2.331-4.694-5.207h-3.493c0,2.876-2.104,5.207-4.697,5.207c-2.593,0-4.696-2.331-4.696-5.207h-3.491  c0,2.876-2.104,5.207-4.696,5.207V9.08c2.592,0,4.696,2.332,4.696,5.205c0,2.879-2.104,5.207-4.696,5.207v3.873  c2.592,0,4.696,2.328,4.696,5.208c0,2.872-2.104,5.202-4.696,5.202v3.874c2.592,0,4.696,2.332,4.696,5.207  c0,2.874-2.104,5.205-4.696,5.205v3.872c2.592,0,4.696,2.333,4.696,5.205c0,2.877-2.104,5.209-4.696,5.209v3.87  c2.592,0,4.696,2.332,4.696,5.207c0,2.877-2.104,5.206-4.696,5.206v3.873c2.592,0,4.696,2.333,4.696,5.206  c0,2.875-2.104,5.207-4.696,5.207v3.873c2.592,0,4.696,2.332,4.696,5.205h3.491c0-2.873,2.103-5.205,4.696-5.205  c2.593,0,4.697,2.332,4.697,5.205h3.493c0-2.873,2.101-5.205,4.694-5.205c2.595,0,4.696,2.332,4.696,5.205h3.491  c0-2.873,2.104-5.205,4.697-5.205c2.594,0,4.695,2.332,4.695,5.205h3.495c0-2.873,2.102-5.205,4.693-5.205  c2.594,0,4.696,2.332,4.696,5.205h3.492c0-2.873,2.103-5.205,4.697-5.205c2.592,0,4.695,2.332,4.695,5.205h3.493  c0-2.873,2.103-5.205,4.694-5.205v-3.873c-2.591,0-4.694-2.332-4.694-5.207c0-2.873,2.103-5.206,4.694-5.206v-3.873  c-2.591,0-4.694-2.329-4.694-5.206c0-2.875,2.103-5.207,4.694-5.207v-3.87c-2.591,0-4.694-2.332-4.694-5.209  c0-2.872,2.103-5.205,4.694-5.205v-3.872c-2.591,0-4.694-2.331-4.694-5.205c0-2.875,2.103-5.207,4.694-5.207v-3.874  c-2.591,0-4.694-2.33-4.694-5.202c0-2.88,2.103-5.208,4.694-5.208v-3.873c-2.591,0-4.694-2.328-4.694-5.207  C83.955,11.412,86.058,9.08,88.649,9.08z M80.387,90.991H19.609V9.006h60.778V90.991z"/>
</svg>