<?xml version="1.0" encoding="UTF-8" standalone="no"?>
<!-- Created with Inkscape (http://www.inkscape.org/) -->
<svg xmlns:dc="http://purl.org/dc/elements/1.1/" xmlns:cc="http://creativecommons.org/ns#" xmlns:rdf="http://www.w3.org/1999/02/22-rdf-syntax-ns#" xmlns:svg="http://www.w3.org/2000/svg" xmlns="http://www.w3.org/2000/svg" xmlns:sodipodi="http://sodipodi.sourceforge.net/DTD/sodipodi-0.dtd" xmlns:inkscape="http://www.inkscape.org/namespaces/inkscape" width="533.66406" height="376.65619" id="svg2" sodipodi:version="0.32" inkscape:version="0.46dev+devel" sodipodi:docbase="C:\Documents and Settings\Lumen 2\Desktop" sodipodi:docname="molumen_elephant_silhouet_ok.svg" inkscape:output_extension="org.inkscape.output.svg.inkscape" version="1.0" inkscape:export-filename="C:\joanna\Gfx\drawings_vector\admin\crop\molumen_elephant_silhouet.png" inkscape:export-xdpi="47.726654" inkscape:export-ydpi="47.726654">
  <defs id="defs4"/>
  <sodipodi:namedview id="base" pagecolor="#ffffff" bordercolor="#666666" borderopacity="1.0" inkscape:pageopacity="0.0" inkscape:pageshadow="2" inkscape:zoom="0.7" inkscape:cx="417.68439" inkscape:cy="487.06617" inkscape:document-units="px" inkscape:current-layer="layer1" inkscape:window-width="1280" inkscape:window-height="778" inkscape:window-x="0" inkscape:window-y="0" showgrid="false"/>
  <metadata id="metadata7">
    <rdf:RDF>
      <cc:Work rdf:about="">
        <dc:format>image/svg+xml</dc:format>
        <dc:type rdf:resource="http://purl.org/dc/dcmitype/StillImage"/>
        <dc:title>Olifant</dc:title>
        <dc:date>20 09 2005</dc:date>
        <dc:creator>
          <cc:Agent>
            <dc:title>mo</dc:title>
          </cc:Agent>
        </dc:creator>
        <dc:subject>
          <rdf:Bag>
            <rdf:li>olifant</rdf:li>
            <rdf:li>elefant</rdf:li>
            <rdf:li>elephant</rdf:li>
            <rdf:li>oliphant</rdf:li>
            <rdf:li>slon</rdf:li>
            <rdf:li>trumpet</rdf:li>
            <rdf:li>silhouet</rdf:li>
            <rdf:li>silhouette</rdf:li>
            <rdf:li>tail</rdf:li>
            <rdf:li>feet</rdf:li>
            <rdf:li>africa</rdf:li>
            <rdf:li>afrika</rdf:li>
            <rdf:li>animal</rdf:li>
            <rdf:li>profile</rdf:li>
            <rdf:li>ears</rdf:li>
            <rdf:li>big</rdf:li>
            <rdf:li>jungle</rdf:li>
            <rdf:li>india</rdf:li>
            <rdf:li>indian</rdf:li>
            <rdf:li>african</rdf:li>
            <rdf:li>afrikan</rdf:li>
            <rdf:li>circus</rdf:li>
            <rdf:li>gray</rdf:li>
            <rdf:li>jumbo</rdf:li>
            <rdf:li>nose</rdf:li>
          </rdf:Bag>
        </dc:subject>
        <cc:license rdf:resource="http://web.resource.org/cc/PublicDomain"/>
      </cc:Work>
      <cc:License rdf:about="http://web.resource.org/cc/PublicDomain">
        <cc:permits rdf:resource="http://web.resource.org/cc/Reproduction"/>
        <cc:permits rdf:resource="http://web.resource.org/cc/Distribution"/>
        <cc:permits rdf:resource="http://web.resource.org/cc/DerivativeWorks"/>
      </cc:License>
    </rdf:RDF>
  </metadata>
  <g inkscape:label="Layer 1" inkscape:groupmode="layer" id="layer1" transform="translate(-102.777, -318.736)">
    <path style="fill: rgb(0, 0, 0);" d="M 369.49446,695.16141 C 364.3914,694.74519 354.58002,693.34677 351.30389,692.56869 C 347.31225,691.62068 344.23896,690.33461 343.90874,689.47405 C 343.66975,688.85125 345.18029,686.28914 350.13684,678.91024 C 352.81327,674.92579 353.72841,673.15575 354.74085,670.00527 C 357.87453,660.25396 360.01426,649.84421 362.62114,631.66765 C 364.42732,619.07404 365.79964,610.82638 367.13355,604.54797 C 368.05887,600.19271 368.14428,599.06322 367.95997,593.61915 C 367.82666,589.68157 367.37592,585.41359 366.67754,581.47601 C 364.01661,566.47351 363.69925,561.64248 364.60346,549.90385 C 364.96358,545.22874 365.34915,540.94829 365.46029,540.39173 C 365.57142,539.83516 366.11018,535.919 366.65751,531.68914 C 367.20484,527.45928 367.77665,523.28762 367.9282,522.41879 L 368.20374,520.83909 L 366.45199,521.11921 C 365.48853,521.27327 362.53551,521.17622 359.88973,520.90355 C 356.03124,520.5059 354.46292,520.51034 351.96516,520.92599 C 344.93575,522.09578 335.27784,525.04424 318.69566,531.08282 C 306.10959,535.66618 294.81313,539.38851 288.33782,541.08613 C 280.82423,543.05595 274.51263,543.29739 264.23332,542.00823 C 256.00684,540.97651 252.1148,541.06824 248.64939,542.37549 C 245.85832,543.42837 244.35594,544.95389 242.03155,549.09527 C 237.29201,557.53972 237.2426,557.58204 230.45344,559.01126 C 224.07565,560.35388 223.20984,560.96429 220.98885,565.68385 C 219.13724,569.61848 218.83872,570.46978 217.93497,574.39251 C 216.4985,580.6275 216.17492,585.56594 216.39896,597.8344 C 216.77923,618.65751 219.59589,632.70509 227.32199,652.31098 C 231.32733,662.47502 231.07922,662.1082 238.76461,669.22873 C 241.96673,672.19551 245.83423,677.82499 246.11659,679.93018 C 246.51647,682.91149 243.15096,687.22988 238.96284,689.1094 C 234.01181,691.33129 228.96344,691.30369 211.60473,688.95987 C 206.69109,688.29642 199.67843,687.46282 196.02104,687.10744 C 192.36365,686.75205 188.75976,686.3702 188.0124,686.25886 L 186.65356,686.05645 L 186.89096,683.95786 C 187.59562,677.72869 188.03854,667.88618 187.82276,663.25133 C 187.52104,656.77041 186.52069,651.89272 183.71322,643.21324 C 180.52739,633.36404 179.20433,628.57299 178.23344,623.36984 C 177.75571,620.80966 176.93657,617.25779 176.41312,615.4768 C 173.8272,606.67842 172.71608,603.33366 172.37918,603.33366 C 171.74459,603.33366 168.64062,609.58469 166.65094,614.86964 C 163.81017,622.41526 161.85566,627.40205 160.9397,629.44141 C 153.96539,644.9695 149.92413,657.16509 149.2681,664.66368 C 149.03862,667.28671 149.14805,668.16936 150.06112,671.05972 C 151.49162,675.58808 151.45226,676.88019 149.83677,678.42404 C 147.81205,680.35897 144.9176,681.0015 139.60273,680.69587 C 128.24177,680.04256 123.92474,679.67272 120.35774,679.04715 C 115.5072,678.19648 103.26529,675.22966 102.82089,674.7971 C 102.47081,674.45636 104.24149,670.70077 107.29023,665.31772 C 109.26135,661.83736 119.78963,640.90644 122.18025,635.71536 C 127.30472,624.58791 132.75129,610.96333 136.00816,601.12491 C 139.8041,589.65806 144.24591,572.5172 145.45285,564.678 C 145.70992,563.00832 146.07805,560.91363 146.27091,560.02313 C 146.57539,558.61726 147.68513,549.40195 149.12241,536.34401 C 149.3552,534.22908 149.89997,530.26342 150.33301,527.53144 C 151.6877,518.98491 151.23243,514.57039 148.35695,508.37046 C 147.6745,506.89901 146.91429,504.44003 146.66759,502.90604 C 145.74799,497.18802 144.50914,492.62871 143.87503,492.62871 C 143.73521,492.62871 143.17051,491.90013 142.62016,491.00963 C 141.70792,489.53359 141.00107,488.95119 141.00107,489.67558 C 141.00107,489.83235 140.54981,493.24761 139.99826,497.26504 C 139.04123,504.23607 137.57947,516.59755 135.73613,533.30823 C 134.46801,544.80429 132.14421,563.79239 131.72367,566.0947 C 131.52035,567.20782 131.13984,569.57573 130.87809,571.35673 C 129.11683,583.34105 127.40783,590.09474 123.62568,600.01725 C 120.4065,608.4628 119.32957,611.6025 118.55009,614.81475 L 117.99656,617.09588 L 117.96924,612.44101 C 117.89896,600.46527 119.70516,588.91032 123.73053,575.58377 C 127.63306,562.66393 129.63642,548.67384 131.46527,521.56986 C 132.69816,503.2981 133.18303,492.90076 133.71153,473.40208 C 134.26761,452.8858 135.17433,445.26268 138.81489,430.49632 C 140.78242,422.51588 141.61989,419.65364 144.14433,412.28162 C 156.84701,375.18652 177.9396,350.56811 206.57402,339.41626 C 219.99557,334.18916 233.91957,332.00207 250.89647,332.45438 C 264.72465,332.8228 273.20296,334.02486 294.40938,338.62366 C 309.59793,341.91742 314.35317,342.33098 329.62449,341.68627 C 357.94008,340.49086 377.12911,336.36492 394.12909,327.81677 C 401.99865,323.85971 403.87881,323.15493 411.1859,321.42311 C 419.63978,319.41948 432.83444,318.23754 438.91273,318.93942 C 447.29802,319.9077 467.1024,327.33992 476.1324,332.90729 C 479.032,334.69502 482.58581,336.08284 485.46143,336.55043 C 486.24061,336.67713 491.14655,337.06028 496.36351,337.40187 C 507.14692,338.10793 508.79046,338.41986 516.31431,341.18843 C 531.52476,346.78546 539.03671,351.60239 549.22553,362.29236 C 555.8741,369.26794 564.18709,380.90383 570.39406,391.92242 C 573.00224,396.55249 578.96359,408.1418 578.96359,408.58226 C 578.96359,408.67938 579.76775,410.4622 580.75061,412.54408 C 584.10325,419.6455 587.87366,428.97173 593.3267,443.65139 C 595.27012,448.88306 597.27131,454.2564 597.7738,455.59214 C 598.27632,456.92789 599.48019,460.19257 600.44913,462.84699 C 602.55467,468.6153 603.27476,469.7637 605.84259,471.4483 C 609.05752,473.55743 614.13166,474.71961 624.90513,475.81437 C 633.50271,476.68802 636.44111,477.24092 636.44111,477.98502 C 636.44111,479.26954 634.38212,482.0482 632.70531,483.02654 C 630.20508,484.48531 627.73225,485.23313 622.36656,486.15313 C 614.53517,487.49589 612.88674,487.83206 610.02978,488.669 C 608.52707,489.10922 607.29758,489.58826 607.29754,489.73355 C 607.29754,489.87883 608.55994,496.46392 610.10293,504.36708 C 613.96477,524.14769 616.21404,536.86562 619.65986,558.40405 C 624.51173,588.73114 627.83175,627.32956 628.9732,666.68036 C 629.23282,675.63081 629.87523,681.36844 630.96294,684.45128 C 631.30444,685.41922 631.58385,686.25049 631.58385,686.29855 C 631.58385,686.34661 630.80973,686.40058 629.86358,686.41848 C 628.91742,686.43638 626.07901,687.19381 623.55599,688.10167 C 619.18895,689.67306 617.05006,690.05213 615.6285,689.50663 C 614.79532,689.18692 614.79827,687.2036 615.63777,683.27599 C 616.76352,678.00901 616.11803,668.21251 613.35749,648.66804 C 611.25001,633.74719 606.15454,610.11574 601.7614,594.88836 C 600.98193,592.18667 600.19615,589.42977 600.01522,588.76189 C 598.88866,584.60394 590.46391,553.4082 589.2479,548.89192 C 579.88748,514.12731 572.7057,496.07122 562.76383,482.30705 C 557.54876,475.08695 554.07619,472.87971 543.33886,469.9602 C 537.96516,468.49908 535.21053,467.43137 527.15287,463.68652 C 518.25555,459.55141 514.38699,458.14474 511.27596,457.91345 C 508.57771,457.71284 508.55019,457.72119 508.09887,458.87786 C 507.74886,459.77493 507.79334,461.1206 508.29138,464.6995 C 509.06918,470.28864 509.11687,473.61702 508.43219,474.52692 C 507.63055,475.59227 494.49769,478.08149 488.28001,478.34658 C 484.04278,478.52724 482.33984,478.40508 477.95835,477.60617 C 470.77382,476.29617 458.51101,476.20213 455.19629,477.43161 C 452.24659,478.5257 450.48575,480.10373 449.2133,482.79349 C 447.71128,485.96848 447.11053,489.83265 446.58299,499.71221 C 445.95368,511.49745 446.39868,514.07563 452.09714,531.65982 C 453.97814,537.46418 456.2545,545.21862 457.15571,548.89192 C 460.75198,563.5501 462.59386,567.96272 476.41677,595.03585 C 482.89185,607.71772 485.39355,613.35699 487.90892,620.94121 C 490.67303,629.27534 491.56113,634.03163 491.80128,641.78693 C 491.91979,645.61413 492.22995,648.97551 492.55951,650.00448 C 493.36365,652.51512 495.16347,654.57875 499.58081,658.05488 C 504.68304,662.06999 508.65255,665.96556 515.10181,673.28688 L 520.38659,679.28624 L 518.40653,681.32321 C 515.80652,683.99788 510.46872,688.43999 507.92623,690.04484 C 499.83085,695.15479 493.02214,696.2728 479.07477,694.78234 C 475.79739,694.43211 470.43854,694.01641 467.16621,693.85856 C 463.89388,693.70072 461.1176,693.47264 460.99669,693.35173 C 460.87577,693.23082 460.59514,690.11847 460.37306,686.43539 C 459.45814,671.26207 457.17884,660.48848 452.25442,648.06089 C 449.51996,641.16004 447.91744,638.02263 444.24166,632.37353 C 440.76884,627.03634 437.99057,622.20025 434.65097,615.67918 C 431.59373,609.70946 427.36985,602.90213 423.47451,597.66686 C 420.82226,594.10228 417.63679,590.66422 417.31082,591.01444 C 417.22068,591.11128 415.9553,594.37809 414.49888,598.27402 C 411.89572,605.23748 410.81245,608.42648 404.87418,626.60801 C 402.40483,634.16855 401.15171,637.2278 397.49605,644.62033 C 390.94719,657.86352 389.15304,663.02061 389.91776,666.40336 C 390.27753,667.99479 392.02322,670.82959 393.16046,671.66914 C 393.83766,672.16907 401.68981,681.75735 403.20887,683.93928 C 404.00554,685.08359 406.53103,691.57871 406.53103,692.48329 C 406.53103,692.83776 404.40499,693.23207 395.80459,694.47269 C 391.88463,695.03815 373.79051,695.5118 369.49446,695.16141 z" id="path1368"/>
  </g>
</svg>