<svg xmlns="http://www.w3.org/2000/svg" xmlns:xlink="http://www.w3.org/1999/xlink" version="1.0" x="0px" y="0px" width="100px" height="100px" viewBox="0 0 100 100" overflow="" enable-background="new 0 0 100 100" xml:space="preserve">
    <path d="M73.544,37.067v-7.002c0-5.971-4.844-10.813-10.821-10.813h-2.221v-6.508c0-1.818-1.474-3.292-3.292-3.292 c-1.816,0-3.296,1.475-3.296,3.292v13.253c0,1.626-1.315,2.94-2.94,2.94c-1.616,0-2.925-1.314-2.925-2.94v-6.745h-5.707v-6.508 c0-1.818-1.474-3.292-3.293-3.292c-1.823,0-3.293,1.475-3.293,3.292v13.253c0,1.626-1.31,2.94-2.939,2.94 c-1.616,0-2.927-1.314-2.927-2.94v-6.745h-5.632v-6.508c0-1.818-1.479-3.292-3.293-3.292c-1.822,0-3.296,1.475-3.296,3.292v13.253 c0,1.626-1.31,2.94-2.934,2.94c-1.622,0-2.931-1.314-2.931-2.94v-6.745C5.836,19.26,1,24.097,1,30.065v43.966 C1,80.01,5.84,84.85,11.814,84.85h43.675c4.765,4.114,10.97,6.608,17.762,6.608c15.021,0,27.198-12.181,27.198-27.198 C100.449,49.335,88.432,37.226,73.544,37.067z M49.158,51.646v-3.503h-9.928v6.048h8.755c-0.425,1.067-0.792,2.163-1.08,3.295 h-7.675v6.048h6.84c-0.006,0.24-0.019,0.48-0.019,0.726c0,0.868,0.051,1.722,0.13,2.57h-6.952v6.046h8.229 c0.378,1.136,0.82,2.239,1.34,3.301H12.81c-1.922,0-3.487-1.559-3.487-3.481V44.849h44.88 C52.187,46.827,50.484,49.124,49.158,51.646z M73.251,82.333c-9.988,0-18.08-8.091-18.08-18.075c0-9.982,8.092-18.076,18.08-18.076 c9.978,0,18.073,8.094,18.073,18.076C91.324,74.242,83.229,82.333,73.251,82.333z"/>
    <rect x="12.594" y="57.486" width="9.928" height="6.048"/>
    <rect x="12.594" y="66.83" width="9.928" height="6.046"/>
    <rect x="25.815" y="48.143" width="10.12" height="6.048"/>
    <rect x="25.815" y="57.486" width="10.12" height="6.048"/>
    <rect x="25.815" y="66.83" width="10.12" height="6.046"/>
    <path d="M75.598,61.888c-0.139-0.138-0.289-0.254-0.448-0.364l0.015-0.017l-11.248-8.476 c-0.455-0.461-1.201-0.461-1.657-0.003c-0.461,0.461-0.459,1.2,0.002,1.661l8.13,10.792l1.767,6.979 c0.234,0.744,0.522,1.176,1.167,1.171c0.652,0.005,0.952-0.445,1.178-1.171l1.976-7.674h-0.022c0-0.012,0-0.025,0.003-0.037 C76.66,63.75,76.374,62.667,75.598,61.888z"/>
    <rect x="12.594" y="57.486" width="9.928" height="6.048"/>
    <rect x="12.594" y="66.83" width="9.928" height="6.046"/>
    <rect x="25.815" y="48.143" width="10.12" height="6.048"/>
    <rect x="25.815" y="57.486" width="10.12" height="6.048"/>
    <rect x="25.815" y="66.83" width="10.12" height="6.046"/>
    <path d="M73.243,52.358c1.019-0.002,1.837-0.817,1.833-1.834c0-1.014-0.823-1.827-1.825-1.825 c-1.021,0.002-1.837,0.816-1.836,1.825C71.414,51.54,72.23,52.368,73.243,52.358z"/>
    <rect x="12.594" y="57.486" width="9.928" height="6.048"/>
    <rect x="12.594" y="66.83" width="9.928" height="6.046"/>
    <rect x="25.815" y="48.143" width="10.12" height="6.048"/>
    <rect x="25.815" y="57.486" width="10.12" height="6.048"/>
    <rect x="25.815" y="66.83" width="10.12" height="6.046"/>
    <path d="M84.998,64.13c0,1.016,0.824,1.828,1.833,1.833c1.01-0.005,1.833-0.827,1.829-1.839 c0.002-1.005-0.815-1.829-1.829-1.826C85.814,62.29,85.002,63.116,84.998,64.13z"/>
    <rect x="12.594" y="57.486" width="9.928" height="6.048"/>
    <rect x="12.594" y="66.83" width="9.928" height="6.046"/>
    <rect x="25.815" y="48.143" width="10.12" height="6.048"/>
    <rect x="25.815" y="57.486" width="10.12" height="6.048"/>
    <rect x="25.815" y="66.83" width="10.12" height="6.046"/>
    <path d="M73.251,75.859c-1.015,0-1.829,0.818-1.836,1.825c0.003,1.017,0.817,1.834,1.832,1.842 c1.015-0.003,1.833-0.828,1.833-1.838C75.08,76.678,74.262,75.859,73.251,75.859z"/>
    <rect x="12.594" y="57.486" width="9.928" height="6.048"/>
    <rect x="12.594" y="66.83" width="9.928" height="6.046"/>
    <rect x="25.815" y="48.143" width="10.12" height="6.048"/>
    <rect x="25.815" y="57.486" width="10.12" height="6.048"/>
    <rect x="25.815" y="66.83" width="10.12" height="6.046"/>
    <path d="M59.655,62.302c-1.011-0.002-1.836,0.814-1.834,1.828c0,1.016,0.821,1.833,1.834,1.837 c1.014-0.004,1.829-0.829,1.835-1.837C61.488,63.116,60.665,62.3,59.655,62.302z"/>
    <rect x="12.594" y="57.486" width="9.928" height="6.048"/>
    <rect x="12.594" y="66.83" width="9.928" height="6.046"/>
    <rect x="25.815" y="48.143" width="10.12" height="6.048"/>
    <rect x="25.815" y="57.486" width="10.12" height="6.048"/>
    <rect x="25.815" y="66.83" width="10.12" height="6.046"/>
</svg>