<svg xmlns="http://www.w3.org/2000/svg" xmlns:xlink="http://www.w3.org/1999/xlink" version="1.1" id="Layer_1" x="0px" y="0px" width="100px" height="100px" viewBox="0 0 100 100" enable-background="new 0 0 100 100" xml:space="preserve">
<path d="M83.438,44.208h-2.999L70.34,32.803l-7.069,16.072l24.334,37.167c0,0-6.729,0.458-9.105,0  c-2.375-0.459-4.396-2.916-4.396-2.916L52.27,54.459l-6.665,19.416H6.187c0,0-0.219-2.874,1.25-5.219  c1.594-2.875,5.417-2.698,5.417-2.698l22.053-0.107c1.368-0.122,1.75-0.007,2.447-0.725c0.472-0.735,0.5-1.251,0.5-1.251l3.25-17  l7.234-17.597l-0.307-0.027l-9.607-0.029c-0.525,0.987-3.285,6.098-6.028,9.863c-1.983,2.72-2,4.458-5.958,3.979  c-5.01-0.606-3.563-5-3.563-5l10.229-17.438h33.667c0,0,4.167,0,6.791,3.042c1.467,1.699,9.875,12.125,9.875,12.125h15.625V0h-84.25  v62.375c-6.75,0-12.5,5.313-12.375,9.124c0,4.708,0,6.049,0,6.376h12.375v11.05L1.937,99.876h55l9.749-7.375  c0,0,5.751-5.001,20.063-4.375l-5.688,4.375L71.312,100l16.252-0.124l11.499-7.375V44.208H83.438z M68.312,4.625  c4.214,0,7.626,3.414,7.626,7.625c0,4.211-3.412,7.625-7.626,7.625c-4.21,0-7.624-3.414-7.624-7.625  C60.688,8.039,64.102,4.625,68.312,4.625z"/>
</svg>