<svg xmlns:dc="http://purl.org/dc/elements/1.1/" xmlns:cc="http://creativecommons.org/ns#" xmlns:rdf="http://www.w3.org/1999/02/22-rdf-syntax-ns#" xmlns:svg="http://www.w3.org/2000/svg" xmlns="http://www.w3.org/2000/svg" xmlns:sodipodi="http://sodipodi.sourceforge.net/DTD/sodipodi-0.dtd" xmlns:inkscape="http://www.inkscape.org/namespaces/inkscape" version="1.1" width="79.920204" height="78.036865" id="svg2" inkscape:version="0.48.1 " sodipodi:docname="jasmine.svg">
  <sodipodi:namedview pagecolor="#ffffff" bordercolor="#666666" borderopacity="1" objecttolerance="10" gridtolerance="10" guidetolerance="10" inkscape:pageopacity="0" inkscape:pageshadow="2" inkscape:window-width="1920" inkscape:window-height="1017" id="namedview9" showgrid="false" inkscape:zoom="2.6277448" inkscape:cx="-112.92283" inkscape:cy="-2.7618021" inkscape:window-x="-4" inkscape:window-y="-4" inkscape:window-maximized="1" inkscape:current-layer="layer1"/>
  <defs id="defs4"/>
  <metadata id="metadata7">
    <rdf:RDF>
      <cc:Work rdf:about="">
        <dc:format>image/svg+xml</dc:format>
        <dc:type rdf:resource="http://purl.org/dc/dcmitype/StillImage"/>
        <dc:title/>
      </cc:Work>
    </rdf:RDF>
  </metadata>
  <g transform="translate(-154.17326,-480.36179)" id="layer1">
    <path d="m 174.12505,506.94294 c 0.20815,0.0746 0.0292,0.21387 0.0631,0.31568 0.0149,0.0446 0.0517,0.0806 0.0631,0.12626 0.0102,0.0408 -0.0133,0.0863 0,0.12627 0.009,0.0282 0.0559,0.0343 0.0631,0.0631 0.0153,0.0612 -0.0104,0.12713 0,0.1894 0.0109,0.0657 0.0537,0.12352 0.0631,0.1894 0,0.65969 -0.0266,-0.0966 0.0631,0.44195 0.0208,0.12455 -0.0179,0.2538 0,0.3788 0.0245,0.1718 0.0886,0.33567 0.12627,0.50508 0.0233,0.10475 0.0336,0.21249 0.0631,0.31567 0.0129,0.0453 0.0457,0.0826 0.0631,0.12627 0.0247,0.0618 0.0369,0.12824 0.0631,0.18941 0.0371,0.0865 0.0965,0.16325 0.12627,0.25253 0.0266,0.0799 -0.0204,0.17088 0,0.25254 0.0255,0.10193 0.0621,0.12523 0.12627,0.18941 0.021,0.021 0.0521,0.0355 0.0631,0.0631 0.0322,0.0806 0.0243,0.17493 0.0631,0.25254 0.0266,0.0532 0.0956,0.0752 0.12627,0.12627 0.0342,0.0571 0.0289,0.13233 0.0631,0.1894 0.0306,0.051 0.10416,0.071 0.12627,0.12627 0.0234,0.0586 -0.0153,0.12815 0,0.1894 0.002,0.009 0.11405,0.10794 0.12627,0.12627 0.0261,0.0392 0.0482,0.0816 0.0631,0.12627 0.0224,0.0673 -0.0377,0.19592 0,0.25254 0.0261,0.0392 0.093,0.0299 0.12627,0.0631 0.0153,0.0153 0.17575,0.34468 0.18941,0.37881 0.0247,0.0618 0.0232,0.13617 0.0631,0.1894 0.0282,0.0376 0.093,0.0299 0.12627,0.0631 0.0298,0.0298 -0.0188,0.0886 0,0.12627 0.0133,0.0266 0.0421,0.0421 0.0631,0.0631 0.0211,0.021 0.0365,0.0498 0.0631,0.0631 0.0188,0.009 0.0482,-0.0149 0.0631,0 0.0298,0.0298 -0.0298,0.0965 0,0.12627 0.0149,0.0149 0.0483,-0.0149 0.0631,0 0.0149,0.0149 -0.009,0.0443 0,0.0631 0.0152,0.0303 0.11111,0.096 0.12627,0.12627 0.009,0.0188 -0.0188,0.0537 0,0.0631 0.0376,0.0188 0.0965,-0.0298 0.12627,0 0.0471,0.0471 0.0334,0.12988 0.0631,0.18941 0.0133,0.0266 0.0498,0.0365 0.0631,0.0631 0.009,0.0188 -0.007,0.0432 0,0.0631 0.12613,0.37839 -0.0162,-0.15858 0.1894,0.25254 0.0188,0.0376 -0.0188,0.0886 0,0.12626 0.0266,0.0532 0.0905,0.0787 0.12627,0.12627 0.0282,0.0376 0.037,0.0871 0.0631,0.12627 0.033,0.0495 0.0842,0.0842 0.12627,0.12627 0.0842,0.0842 0.15958,0.17817 0.25254,0.25254 0.0592,0.0474 0.142,0.067 0.1894,0.12627 0.0416,0.052 0.0289,0.13234 0.0631,0.1894 0.0306,0.051 0.0842,0.0842 0.12627,0.12627 0.0842,0.0842 0.16836,0.16836 0.25254,0.25254 0.0631,0.0631 0.1375,0.11675 0.1894,0.1894 0.0547,0.0766 0.066,0.18024 0.12627,0.25254 0.0486,0.0583 0.14083,0.068 0.1894,0.12627 0.0602,0.0723 0.0741,0.17423 0.12627,0.25254 0.47046,0.70569 0.0304,-0.042 0.50508,0.56821 0.0753,0.0969 0.12627,0.21045 0.1894,0.31567 0.0631,0.10523 0.12134,0.21357 0.1894,0.31568 0.11674,0.1751 0.25254,0.33671 0.37881,0.50507 0.0631,0.0842 0.115,0.17813 0.1894,0.25254 0.0537,0.0537 0.13575,0.0726 0.18941,0.12627 0.0537,0.0537 0.0807,0.1287 0.12627,0.1894 0.0808,0.1078 0.16189,0.21597 0.25254,0.31567 0.12012,0.13214 0.26448,0.24163 0.3788,0.37881 0.0972,0.11658 0.16001,0.25852 0.25254,0.37881 0.44533,0.57893 0.28734,0.30345 0.75762,0.82075 0.0906,0.0997 0.15182,0.22615 0.25253,0.31567 0.0917,0.0815 0.22251,0.10954 0.31568,0.1894 0.0576,0.0494 0.0842,0.12627 0.12627,0.18941 0.0631,0.0631 0.11968,0.13363 0.1894,0.1894 0.20165,0.16132 0.065,-0.0607 0.25254,0.18941 0.0282,0.0376 0.0421,0.0842 0.0631,0.12626 0.0421,0.0421 0.0906,0.0787 0.12627,0.12627 0.0282,0.0376 0.0255,0.098 0.0631,0.12627 0.0532,0.0399 0.13743,0.0216 0.1894,0.0631 0.0593,0.0474 0.0789,0.13015 0.12627,0.1894 0.0372,0.0465 0.0842,0.0842 0.12627,0.12627 0.14731,0.14731 0.30475,0.28515 0.44194,0.44194 0.2034,0.23246 0.17997,0.3086 0.44194,0.50508 0.0753,0.0565 0.18599,0.0597 0.25254,0.12627 0.0666,0.0666 0.0698,0.17724 0.12627,0.25253 0.2951,0.39347 0.18544,0.12232 0.50507,0.44195 0.0744,0.0744 0.12093,0.17264 0.18941,0.25253 0.0581,0.0678 0.13224,0.12082 0.1894,0.18941 0.0486,0.0583 0.0726,0.13575 0.12627,0.1894 0.0537,0.0537 0.13575,0.0726 0.1894,0.12627 0.24851,0.2485 0.003,0.12824 0.25254,0.31567 0.0377,0.0282 0.093,0.0299 0.12627,0.0631 0.0537,0.0537 0.0822,0.12766 0.12627,0.1894 0.43112,0.60358 -0.0233,-0.0882 0.31567,0.50508 0.0377,0.0659 0.0872,0.12434 0.12627,0.1894 0.0242,0.0403 0.037,0.0871 0.0631,0.12627 0.033,0.0495 0.0996,0.073 0.12627,0.12627 0.009,0.0188 -0.007,0.0432 0,0.0631 0.0149,0.0447 0.0421,0.0842 0.0631,0.12627 0.021,0.0421 0.0337,0.0895 0.0631,0.12627 0.0558,0.0697 0.12627,0.12627 0.18941,0.18941 0.12669,0.12669 0.25211,0.25211 0.37881,0.3788 0.0421,0.0421 0.0842,0.0842 0.12626,0.12627 0.0421,0.0421 0.0957,0.0752 0.12627,0.12627 0.0342,0.0571 0.0232,0.13617 0.0631,0.18941 0.0282,0.0376 0.093,0.0299 0.12627,0.0631 0.0333,0.0333 0.0299,0.093 0.0631,0.12627 0.004,0.004 0.24078,0.11843 0.25254,0.12627 0.0248,0.0165 0.0421,0.0421 0.0631,0.0631 0.0631,0.0421 0.12434,0.0872 0.18941,0.12627 0.1199,0.0719 0.26253,0.11189 0.37881,0.1894 0.0292,0.0195 0.0971,0.10682 0.12626,0.12627 0.45777,0.22889 -0.0998,-0.0666 0.18941,0.12627 0.27574,0.18383 -0.0208,-0.028 0.25254,0.0631 0.0893,0.0298 0.16653,0.088 0.25253,0.12627 0.93576,0.3743 -0.22807,-0.10137 0.56821,0.25253 0.79009,0.35115 -0.15032,-0.0711 0.63135,0.18941 0.0893,0.0298 0.16066,0.10585 0.25254,0.12627 0.10272,0.0228 0.21295,-0.0228 0.31567,0 0.0919,0.0204 0.16516,0.0913 0.25254,0.12627 0.12358,0.0494 0.24968,0.094 0.37881,0.12627 0.12418,0.031 0.2553,0.0294 0.3788,0.0631 0.33701,0.0919 0.25108,0.14976 0.56821,0.1894 0.0835,0.0104 0.17,-0.0165 0.25254,0 0.13052,0.0261 0.25254,0.0842 0.37881,0.12627 0.46112,0.15371 0.24968,0.094 0.63134,0.18941 0.0842,0.021 0.16644,0.0524 0.25254,0.0631 0.0835,0.0104 0.16878,-0.008 0.25254,0 0.12738,0.0127 0.25143,0.0504 0.37881,0.0631 0.0838,0.008 0.16836,0 0.25254,0 0.23149,0 0.46298,0 0.69448,0 0.65239,0 1.30478,0 1.95717,0 0.6103,0 1.2206,0 1.8309,0 0.14731,0 0.29463,0 0.44194,0 0.0842,0 0.16921,0.0119 0.25254,0 0.0659,-0.009 0.12627,-0.0421 0.1894,-0.0631 0.19256,-0.0642 0.39305,-0.14744 0.56821,-0.25254 0.0651,-0.039 0.12154,-0.0923 0.18941,-0.12627 0.0188,-0.009 0.0421,0 0.0631,0 0.0631,-0.021 0.13234,-0.0289 0.1894,-0.0631 0.0511,-0.0306 0.073,-0.0996 0.12627,-0.12627 0.0377,-0.0188 0.0854,0.0102 0.12627,0 0.0457,-0.0114 0.0826,-0.0457 0.12627,-0.0631 0.0618,-0.0247 0.12627,-0.0421 0.18941,-0.0631 0.0631,-0.021 0.12626,-0.0421 0.1894,-0.0631 0.0631,-0.0211 0.13234,-0.0289 0.1894,-0.0631 0.0929,-0.0557 0.20415,-0.23502 0.25254,-0.31567 0.0613,-0.10224 0.0658,-0.19074 0.1894,-0.25254 0.12627,-0.0631 0.0947,0.0316 0.18941,0 0.0446,-0.0149 0.0871,-0.037 0.12627,-0.0631 0.10311,-0.0687 0.0259,-0.0936 0.1894,-0.12627 0.0619,-0.0124 0.12713,0.0104 0.1894,0 0.0656,-0.0109 0.12376,-0.0522 0.18941,-0.0631 0.0623,-0.0104 0.12627,0 0.1894,0 0.0842,0 0.16836,0 0.25254,0 0.21045,0 0.4209,0 0.63134,0 0.0631,0 0.12627,0 0.18941,0 0.021,0 0.0443,0.009 0.0631,0 0.0266,-0.0133 0.0365,-0.0498 0.0631,-0.0631 0.0188,-0.009 0.0421,0 0.0631,0 0.10523,0 0.21045,0 0.31567,0 0.0421,0 0.0886,0.0188 0.12627,0 0.0188,-0.009 -0.0149,-0.0483 0,-0.0631 0.0149,-0.0149 0.0443,0.009 0.0631,0 0.0532,-0.0266 0.073,-0.0996 0.12627,-0.12627 0.0188,-0.009 0.0443,0.009 0.0631,0 0.0266,-0.0133 0.0393,-0.0453 0.0631,-0.0631 0.0607,-0.0455 0.12153,-0.0923 0.1894,-0.12627 0.0188,-0.009 0.0482,0.0149 0.0631,0 0.0537,-0.0537 0.0726,-0.13575 0.12627,-0.1894 0.0333,-0.0333 0.0886,-0.0349 0.12627,-0.0631 0.0476,-0.0357 0.0786,-0.0906 0.12627,-0.12627 0.11033,-0.0827 0.18835,-0.0626 0.31567,-0.12626 0.0266,-0.0133 0.0365,-0.0498 0.0631,-0.0631 0.0188,-0.009 0.0443,0.009 0.0631,0 0.0532,-0.0266 0.073,-0.0996 0.12627,-0.12627 0.0188,-0.009 0.0483,0.0149 0.0631,0 0.0333,-0.0333 0.0389,-0.0859 0.0631,-0.12627 0.039,-0.0651 0.0789,-0.13015 0.12627,-0.1894 0.0372,-0.0465 0.0842,-0.0842 0.12627,-0.12627 0.0631,-0.0421 0.14083,-0.068 0.1894,-0.12627 0.0602,-0.0723 0.0741,-0.17423 0.12627,-0.25254 0.033,-0.0495 0.0967,-0.0746 0.12627,-0.12627 0.0562,-0.0984 0.0842,-0.21045 0.12627,-0.31567 0.15653,-0.39132 0.30071,-0.78303 0.37881,-1.19956 0.0394,-0.21032 0.11974,-1.0559 0.12627,-1.19955 0.0381,-0.83852 -0.061,-0.58352 0.0631,-1.4521 0.0274,-0.19207 0.0692,-0.38276 0.12627,-0.56821 0.0277,-0.0899 0.0842,-0.16836 0.12627,-0.25253 0.021,-0.0421 0.0517,-0.0806 0.0631,-0.12627 0.0153,-0.0612 -0.02,-0.12951 0,-0.18941 0.0149,-0.0446 0.0539,-0.0801 0.0631,-0.12627 0.0124,-0.0619 0,-0.12627 0,-0.1894 0,-0.23149 -0.0178,-0.46367 0,-0.69448 0.0358,-0.46481 0.0778,-0.3845 0.12627,-0.82075 0.007,-0.0628 -0.009,-0.1269 0,-0.1894 0.0123,-0.0859 0.0461,-0.16746 0.0631,-0.25254 0.0251,-0.12553 0.0321,-0.25462 0.0631,-0.37881 0.0323,-0.12912 0.10174,-0.24799 0.12627,-0.37881 0.12816,-0.68355 0.0385,-1.39491 0.0631,-2.08343 0.0105,-0.29519 0.0508,-0.58877 0.0631,-0.88389 0.009,-0.21026 -0.0261,-0.42252 0,-0.63134 0.0357,-0.2857 0.21314,-0.50126 0.31568,-0.75762 0.0494,-0.12358 0.0842,-0.25254 0.12627,-0.37881 0.021,-0.0631 0.0537,-0.12352 0.0631,-0.1894 0.0119,-0.0833 -0.008,-0.1687 0,-0.25254 0.10192,-1.12111 0.0169,0.11713 0.12627,-0.75761 0.008,-0.0627 0,-0.12627 0,-0.1894 0,-0.0842 0,-0.16836 0,-0.25254 0,-0.33672 0,-0.67344 0,-1.01016 0,-0.16835 -0.014,-0.33729 0,-0.50507 0.0124,-0.1483 0.0525,-0.29351 0.0631,-0.44194 0.0105,-0.14694 -0.0183,-0.29577 0,-0.44195 0.004,-0.0295 0.0537,-0.0349 0.0631,-0.0631 0,-0.28741 -0.0298,-0.004 0.0631,-0.1894 0.009,-0.0188 0,-0.0421 0,-0.0631 0,-0.0421 0,-0.0842 0,-0.12627 0,-0.12627 0,-0.25254 0,-0.3788 0,-0.25254 0,-0.50508 0,-0.75762 0,-0.0718 0.0125,-0.3161 0,-0.37881 -0.0261,-0.13051 -0.10016,-0.24829 -0.12627,-0.3788 -0.0481,-0.24079 0.0895,-0.0105 -0.0631,-0.31568 -0.0339,-0.0679 -0.0964,-0.11966 -0.12627,-0.1894 -0.0527,-0.12301 -0.0561,-0.31908 -0.12627,-0.44194 -0.42526,-0.7442 -0.002,-0.002 -0.31567,-0.31567 -0.23289,-0.23289 0.15119,-0.0255 -0.1894,-0.25254 -0.0175,-0.0117 -0.0456,0.0117 -0.0631,0 -0.0495,-0.033 -0.0787,-0.0906 -0.12627,-0.12627 -0.0753,-0.0565 -0.17183,-0.0779 -0.25254,-0.12627 -0.22092,-0.13255 -0.41288,-0.3054 -0.63134,-0.44194 -0.34938,-0.21837 -0.3064,-0.18477 -0.69448,-0.37881 -0.16836,-0.0842 -0.33672,-0.16836 -0.50508,-0.25254 -0.16836,-0.10522 -0.32961,-0.22278 -0.50507,-0.31567 -0.18318,-0.097 -0.38039,-0.16489 -0.56821,-0.25254 -0.12793,-0.0597 -0.25029,-0.13098 -0.37881,-0.1894 -0.10317,-0.0469 -0.21431,-0.0756 -0.31567,-0.12627 -0.0679,-0.0339 -0.12434,-0.0872 -0.18941,-0.12627 -0.0403,-0.0242 -0.0859,-0.0389 -0.12627,-0.0631 -0.0651,-0.039 -0.12153,-0.0923 -0.1894,-0.12627 -0.0595,-0.0298 -0.13403,-0.0262 -0.1894,-0.0631 -0.0743,-0.0495 -0.11136,-0.14604 -0.18941,-0.1894 -0.11635,-0.0646 -0.25254,-0.0842 -0.37881,-0.12627 -0.35394,-0.11798 -0.60209,-0.18719 -0.94701,-0.37881 -0.19899,-0.11055 -0.36981,-0.2672 -0.56821,-0.3788 -0.13969,-0.0786 -0.29463,-0.12627 -0.44195,-0.18941 -0.33787,-0.1448 -0.57804,-0.22785 -0.88388,-0.44194 -0.0731,-0.0512 -0.11369,-0.14208 -0.1894,-0.1894 -0.13591,-0.0849 -0.30451,-0.10695 -0.44194,-0.18941 -0.22779,-0.13667 -0.17106,-0.14418 -0.44195,-0.25254 -0.12358,-0.0494 -0.25795,-0.0705 -0.3788,-0.12626 -0.53638,-0.24757 -0.3136,-0.23908 -0.82075,-0.44195 -0.0595,-0.0238 -0.3044,-0.0519 -0.37881,-0.12627 -0.0333,-0.0333 -0.0255,-0.098 -0.0631,-0.12626 -0.0532,-0.0399 -0.12988,-0.0334 -0.18941,-0.0631 -0.0679,-0.0339 -0.12153,-0.0923 -0.1894,-0.12627 -0.0595,-0.0298 -0.13162,-0.0301 -0.1894,-0.0631 -0.43527,-0.24872 -0.0837,-0.11013 -0.44195,-0.37881 -0.32138,-0.24104 -0.48327,-0.21007 -0.82075,-0.37881 -0.0679,-0.0339 -0.12765,-0.0822 -0.1894,-0.12627 -0.0856,-0.0612 -0.15582,-0.14795 -0.25254,-0.1894 -0.058,-0.0249 -0.12777,0.0137 -0.1894,0 -0.12993,-0.0289 -0.25372,-0.0808 -0.37881,-0.12627 -0.22563,0.0293 -0.32883,-0.18644 -0.50507,-0.25254 -0.14686,-0.16671 -0.34412,-0.009 -0.50508,-0.0631 -0.072,-0.024 -0.12434,-0.0872 -0.1894,-0.12627 -0.0404,-0.0242 -0.0826,-0.0457 -0.12627,-0.0631 -0.12358,-0.0494 -0.25647,-0.0738 -0.37881,-0.12626 -0.0865,-0.0371 -0.16325,-0.0965 -0.25254,-0.12627 -0.1018,-0.0339 -0.21387,-0.0292 -0.31567,-0.0631 -0.27752,-0.0925 -0.22755,-0.16003 -0.50508,-0.25254 -0.0399,-0.0133 -0.0886,0.0188 -0.12627,0 -0.0532,-0.0266 -0.0752,-0.0956 -0.12627,-0.12626 -0.0571,-0.0342 -0.12761,-0.0384 -0.1894,-0.0631 -0.0433,0.0546 -0.16231,-0.11272 -0.1894,-0.12627 -0.46404,-0.15468 -0.0322,0.0207 -0.25254,-0.12627 -0.0392,-0.0261 -0.093,-0.0299 -0.12627,-0.0631 -0.0149,-0.0149 0.0149,-0.0483 0,-0.0631 -0.0333,-0.0333 -0.0842,-0.0421 -0.12627,-0.0631 -0.0421,-0.0211 -0.0816,-0.0482 -0.12627,-0.0631 -0.02,-0.007 -0.0443,0.009 -0.0631,0 -0.0266,-0.0133 -0.0384,-0.0466 -0.0631,-0.0631 -0.0392,-0.0261 -0.0871,-0.037 -0.12627,-0.0631 -0.0248,-0.0165 -0.0365,-0.0498 -0.0631,-0.0631 -0.0376,-0.0188 -0.0965,0.0298 -0.12627,0 -0.13063,-0.13063 0.19962,0.005 -0.0631,-0.12627 -0.0376,-0.0188 -0.0965,0.0298 -0.12627,0 -0.0149,-0.0149 0.0149,-0.0482 0,-0.0631 -0.0149,-0.0149 -0.0443,0.009 -0.0631,0 -0.28894,-0.14447 0.26791,0.0262 -0.1894,-0.12627 -0.0399,-0.0133 -0.0886,0.0188 -0.12627,0 -0.25059,-0.1253 0.27903,-0.02 -0.25254,-0.12627 -0.0413,-0.008 -0.0854,0.0102 -0.12627,0 -0.0456,-0.0114 -0.0826,-0.0457 -0.12627,-0.0631 -0.0618,-0.0247 -0.12761,-0.0384 -0.1894,-0.0631 -0.0437,-0.0175 -0.0801,-0.0539 -0.12627,-0.0631 -0.35905,0 -0.0416,0.0282 -0.31567,-0.0631 -0.0409,-0.0136 -0.26399,0 -0.31568,0 -0.16835,0 -0.33671,0 -0.50507,0 -0.21045,0 -0.42163,-0.0175 -0.63135,0 -0.12757,0.0106 -0.25228,0.0437 -0.3788,0.0631 -0.69127,0.10634 -0.22204,0.0103 -1.01016,0.1894 -0.27379,0.0622 -0.55037,0.1137 -0.82075,0.1894 -0.25634,0.0718 -0.50127,0.18077 -0.75761,0.25254 -1.06823,0.29911 -0.52924,0.0916 -1.51523,0.31567 -0.23398,0.0532 -0.46169,0.13121 -0.69448,0.18941 -0.46275,0.11568 -0.54562,0.092 -0.94702,0.25254 -0.0874,0.035 -0.16441,0.0932 -0.25253,0.12626 -0.0812,0.0305 -0.17493,0.0243 -0.25254,0.0631 -0.0532,0.0266 -0.0752,0.0956 -0.12627,0.12627 -0.0571,0.0342 -0.12627,0.0421 -0.18941,0.0631 -0.12626,0.0631 -0.2597,0.11361 -0.3788,0.18941 -0.11369,0.0723 -0.21045,0.16835 -0.31568,0.25253 -0.16835,0.12627 -0.3255,0.26907 -0.50507,0.37881 -0.20077,0.12269 -0.42959,0.19462 -0.63135,0.31567 -0.22027,0.13217 -0.41596,0.30195 -0.63134,0.44195 -0.20578,0.13375 -0.4253,0.24548 -0.63135,0.3788 -0.15199,0.0983 -0.28966,0.21778 -0.44194,0.31568 -0.14272,0.0917 -0.2988,0.16144 -0.44194,0.25253 -0.0888,0.0565 -0.16331,0.13364 -0.25254,0.18941 -0.0636,0.27819 -0.25976,0.0667 -0.37881,0.12627 -0.0532,0.0266 -0.0767,0.0932 -0.12627,0.12627 -0.0783,0.0522 -0.17422,0.0741 -0.25253,0.12626 -0.0495,0.033 -0.0842,0.0842 -0.12627,0.12627 -0.20342,0.20342 -0.34163,0.32303 -0.50508,0.56821 -0.0522,0.0783 -0.0741,0.17423 -0.12627,0.25254 -0.1331,0.19965 -0.30884,0.36856 -0.44194,0.56821 -0.0681,0.10211 -0.11903,0.21515 -0.1894,0.31568 -0.0773,0.11039 -0.1802,0.20198 -0.25254,0.31567 -0.0758,0.1191 -0.10273,0.26737 -0.18941,0.37881 -0.0646,0.083 -0.17813,0.11499 -0.25253,0.1894 -0.002,0.002 -0.37471,0.50016 -0.37881,0.50508 -0.1198,0.14375 -0.1699,0.12284 -0.25254,0.31567 -0.0876,0.2044 -0.0631,0.41693 -0.0631,0.63134 0,0.0631 0,0.12627 0,0.18941 0,0.0421 0.0102,0.0854 0,0.12627 -0.0114,0.0457 -0.0517,0.0806 -0.0631,0.12627 -0.0124,0.0497 0,0.31315 0,0.3788 0,0.0177 0.005,0.3058 0,0.31568 -0.009,0.0188 -0.0482,-0.0149 -0.0631,0 -0.0149,0.0149 0,0.0421 0,0.0631 0,0.0421 0.0188,0.0886 0,0.12627 -0.009,0.0188 -0.0537,-0.0188 -0.0631,0 -0.0188,0.0376 0,0.0842 0,0.12627 0,0.10522 0,0.21045 0,0.31567" id="path4420" style="fill:#000000;fill-opacity:1;stroke:#000000;stroke-width:1px;stroke-linecap:butt;stroke-linejoin:miter;stroke-opacity:1"/>
    <path d="m 192.5,496.55861 c 0,0 -8.45452,-9.31346 -14.64286,-12.85714 -6.18834,-3.54368 -7.41057,-2.76758 -8.21429,-2.76786 -0.80372,-2.8e-4 -2.68905,0.99835 -2.85713,2.23214 -0.16808,1.23379 0.81244,1.90355 0.80357,3.21429 -0.009,1.31074 -2.40316,4.69083 -2.67858,6.60714 -0.27542,1.91631 0.78563,3.76716 2.14286,7.32143 1.35723,3.55427 9.19643,12.05358 9.19643,12.05358 m 35,-5.00001 c -0.0348,0.49259 5.53823,-8.34466 7.14286,-13.74999 1.60463,-5.40534 1.98311,-10.93452 0.89285,-11.87501 -1.09025,-0.94048 -2.46682,-0.28404 -5.08928,0.0893 -2.62246,0.37333 -8.24431,-0.71604 -12.58929,1.07142 -4.34497,1.78746 -8.33497,7.54396 -8.92857,11.07143 -0.59359,3.52747 0.92466,4.48732 0.80357,6.07143 -0.12109,1.58411 -0.80357,3.66071 -0.80357,3.66071 m 14.64286,24.01785 c 0,0 5.27122,1.96889 9.73215,2.58929 4.46092,0.62039 15.07631,0.79811 16.25,-0.26786 1.17368,-1.06598 -1.54482,-5.07444 -2.32143,-7.85714 -0.77662,-2.78271 -1.0561,-6.37769 -2.5893,-8.75 -1.5332,-2.37231 -3.98211,-3.57193 -6.7857,-4.91071 -2.8036,-1.33878 -7.24381,-1.78919 -9.55358,-1.25001 -2.30978,0.53918 -2.79998,1.43591 -4.01786,1.42858 -1.21788,-0.007 -2.5,-1.16072 -2.5,-1.16072 m -17.5,21.25 c 0,0 -0.51765,1.01235 -0.80357,5.35714 -0.28592,4.34479 2.34292,16.04735 4.10715,20.00001 1.76423,3.95266 1.60062,3.69315 3.57143,3.74999 1.97081,0.0568 3.06893,-3.05531 4.46428,-4.01785 1.39534,-0.96255 1.53229,-0.13324 3.57143,-1.78572 2.03914,-1.65248 5.31306,-5.17702 6.42857,-8.66071 1.11551,-3.48368 0.35714,-10.71429 0.35714,-10.71429 0,0 -0.7347,-2.83211 -1.60714,-4.10714 -0.87244,-1.27502 -2.98063,-2.06897 -3.21429,-3.125 -0.23366,-1.05603 0.71429,-1.875 0.71429,-1.875 m -21.42858,-8.92857 c 0,0 -1.12858,0.22825 -1.87499,-0.26786 -0.74642,-0.4961 0.51443,-0.70914 -0.62501,-1.78572 -1.13943,-1.07658 -1.49668,-1.17924 -6.42857,0 -4.93189,1.17925 -15.55552,8.18182 -17.58928,9.4643 -2.03375,1.28248 -3.48601,2.67216 -2.85714,3.83928 0.62888,1.16713 0.77014,-0.38514 3.21428,0.71429 2.44414,1.09943 6.47978,6.17832 10.35715,7.5 3.87737,1.32168 11.78571,0.35714 11.78571,0.35714 0,0 4.35967,-1.80938 5.71428,-3.03571 1.35461,-1.22634 1.71346,-2.33187 2.67858,-3.03572 0.96512,-0.70385 2.85714,-1.25 2.85714,-1.25" id="path3012" style="fill:#000000;fill-opacity:1;stroke:#000000;stroke-width:1px;stroke-linecap:butt;stroke-linejoin:miter;stroke-opacity:1"/>
    <path d="m 187.67857,514.7729 c 0,0 3.76601,-4.3353 6.16072,-0.44643 2.39471,3.88887 -2.94643,5.625 -2.94643,5.625 0,0 6.91084,1.51493 8.92857,-1.25 2.01773,-2.76493 1.85774,-6.09501 0.53571,-8.30357 -1.32203,-2.20856 -5.62615,-3.78266 -8.83928,-2.05357 -3.21313,1.72908 -3.83929,6.42857 -3.83929,6.42857 z" id="path3008" style="fill:#ffffff;fill-opacity:1;stroke:#ffffff;stroke-width:0.6;stroke-linecap:butt;stroke-linejoin:miter;stroke-opacity:1;stroke-miterlimit:4;stroke-dasharray:none"/>
  </g>
</svg>