<svg xmlns="http://www.w3.org/2000/svg" xmlns:xlink="http://www.w3.org/1999/xlink" version="1.1" id="Layer_1" x="0px" y="0px" width="100px" height="100px" viewBox="0 0 100 100" enable-background="new 0 0 100 100" xml:space="preserve">
<g id="XMLID_58_">
	<g id="XMLID_60_">
		<g>
			<g id="XMLID_89_">
				<g>
					<path d="M23.609,51.106l-1.262-7.579l1.77-3.396c0.04-0.036,0.058-0.092,0.078-0.131c0.206-0.319,0.562-0.622,0.922-0.83       c0.245-0.13,0.472-0.225,0.697-0.263l4.659-0.792c0.659-0.094,1.695-0.263,2.336-0.377l4.657-0.773       c0.641-0.112,1.547,0.169,2.018,0.603l2.772,2.642l26.487-4.411c0.961-0.17,1.887,0.489,2.055,1.45l2.152,12.859l0.283,1.752       l2.355,14.158c0.17,0.962-0.49,1.887-1.453,2.037l-44.644,7.447c-0.982,0.151-1.886-0.492-2.057-1.471l-0.865-5.185       l-1.113-6.75L23.609,51.106"/>
					<path d="M72.985,37.116c-0.018-0.979-0.828-1.771-1.807-1.733l-26.868,0.452l-2.338-3.016       c-0.397-0.511-1.262-0.924-1.923-0.906l-4.694,0.076c-0.66,0-1.716,0.02-2.377,0.038l-4.713,0.074       c-0.641,0-1.489,0.452-1.885,0.961l-0.602,0.832l0.602-4.659l2.658-2.732c0.454-0.472,1.357-0.793,1.998-0.717l4.658,0.604       c0.659,0.094,1.716,0.226,2.356,0.303l4.695,0.583c0.641,0.094,1.432,0.602,1.753,1.169l1.904,3.318l27.803,2.816       c0.982,0.112,2.037,1.061,1.887,2.042l-1.73,18.227l-1.188-6.57L72.985,37.116z"/>
				</g>
			</g>
		</g>
	</g>
</g>
</svg>