<svg xmlns="http://www.w3.org/2000/svg" xmlns:xlink="http://www.w3.org/1999/xlink" version="1.1" id="judgement" x="0px" y="0px" width="100px" height="100px" viewBox="0 0 100 100" enable-background="new 0 0 100 100" xml:space="preserve">
<path fill="#000000" d="M81.467,72.294h-2.438v-3.21H45.17v3.21h-2.433c-1.299,0-2.353,1.322-2.353,2.938  c-0.014,1.639,1.054,2.945,2.353,2.937h38.729c1.303,0.021,2.379-1.298,2.365-2.927C83.832,73.616,82.77,72.294,81.467,72.294z"/>
<path fill="#000000" d="M55.773,61.104c1.156,1.155,2.818,1.33,3.748,0.405l11.794-11.821c0.937-0.916,0.752-2.598-0.401-3.744  c-1.15-1.147-2.837-1.336-3.748-0.406L55.358,57.365C54.432,58.286,54.621,59.962,55.773,61.104z"/>
<path fill="#000000" d="M32.653,37.989c1.156,1.161,2.828,1.331,3.744,0.4L48.2,26.572c0.927-0.92,0.751-2.605-0.401-3.748  c-1.15-1.144-2.836-1.331-3.748-0.396L32.243,34.244C31.322,35.176,31.506,36.842,32.653,37.989z"/>
<path fill="#000000" d="M49.885,28.254l-11.91,11.931l5.462,5.448L17.012,72.05c-0.521,0.54-0.844,1.271-0.844,2.079  c0,0.366,0.074,0.713,0.194,1.037c0.304,0.823,0.952,1.471,1.774,1.773c0.324,0.118,0.67,0.193,1.035,0.193  c0.775,0,1.477-0.303,2.01-0.786l26.451-26.508l0.037,0.009l5.906,5.931l11.896-11.931L49.885,28.254z"/>
</svg>