<svg xmlns="http://www.w3.org/2000/svg" xmlns:xlink="http://www.w3.org/1999/xlink" version="1.1" id="Layer_1" x="0px" y="0px" width="100px" height="100px" viewBox="0 0 100 100" enable-background="new 0 0 100 100" xml:space="preserve">
<path d="M23.278,38.058L5.671,61.329c-0.199-0.53-0.309-1.08-0.309-1.675V25.101c0-0.176,0-0.332,0.021-0.486L23.278,38.058z"/>
<path d="M78.07,42.62c9.91,0,17.93,7.76,17.93,17.34c0,9.57-8.02,17.33-17.93,17.33c-9.9,0-17.92-7.76-17.92-17.33  C60.15,50.38,68.17,42.62,78.07,42.62z M88.62,62.46v-5h-7.74V50h-5v7.46h-7.76v5h7.76v8.04h5v-8.04H88.62z"/>
<path d="M81.01,25.1v12.61c-0.77-0.07-1.56-0.11-2.38-0.11c-4.76,0-9.21,1.45-12.87,3.96l-2.529-3.37L81.01,25.03  C81.01,25.06,81.01,25.08,81.01,25.1z"/>
<path d="M78.85,21.11L43.2,47.33L7.85,20.91c0.66-0.37,1.43-0.57,2.27-0.57h66.13C77.22,20.34,78.1,20.63,78.85,21.11z"/>
<path d="M59.68,40.83l2.67,3.53c-4.119,4.17-6.68,9.89-6.68,16.2c0,1.32,0.11,2.6,0.33,3.85H10.12c-0.39,0-0.77-0.04-1.14-0.13  L26.8,40.7l16.4,12.32L59.68,40.83z"/>
</svg>