<svg xmlns="http://www.w3.org/2000/svg" xmlns:xlink="http://www.w3.org/1999/xlink" version="1.1" id="Your_Icon" x="0px" y="0px" width="100px" height="100px" viewBox="0 0 100 100" enable-background="new 0 0 100 100" xml:space="preserve">
<g>
	<path d="M73.626,28H44.794l-1.808-4.202c0.841-1.525,1.419-3.164,1.723-4.919c1.473-8.569-4.298-16.731-12.861-18.205   c-0.889-0.153-1.794-0.227-2.688-0.227c-7.688,0-14.214,5.511-15.519,13.101c-0.714,4.15,0.231,8.331,2.661,11.771   c1.376,1.947,3.174,3.509,5.19,4.64C17.593,32.292,15,36.545,15,41.412v45.336C15,94.108,20.928,100,28.29,100h36.472   c0.645,0,1.262-0.209,1.715-0.666c0.176-0.178,0.312-0.361,0.424-0.58l18.785-18.915C86.458,79.436,87,78.649,87,77.718V41.412   C87,34.049,80.989,28,73.626,28z M20,41.412c0-4.7,3.59-8.412,8.29-8.412h3.479l14.694,14.049C47.096,47.8,48,48.102,49,48.102   v0.042c1,0,1.842-0.462,2.372-1.271c0.346-0.526,0.801-1.578,0.119-3.146L46.857,33h26.769C78.327,33,83,36.711,83,41.412v33.912   l-7.059,0.052c-3.562,0.028-7.116,1.442-9.617,3.982c-2.501,2.541-3.969,5.769-3.94,9.333L62.329,95H28.29   c-4.7,0-8.29-3.555-8.29-8.252V41.412z M20.246,22.533c-1.687-2.386-2.343-5.287-1.848-8.166c0.906-5.266,5.431-9.088,10.761-9.088   c0.622,0,1.251,0.054,1.87,0.16c5.94,1.022,9.943,6.691,8.922,12.633c-0.266,1.534-0.831,2.955-1.678,4.221   c-0.455,0.679-0.535,1.541-0.215,2.292l5.558,13.006l-10.362-9.978c-0.454-0.437-1.056-0.675-1.675-0.675   c-0.146,0-0.292,0.013-0.439,0.041c-1.252,0.232-2.547,0.239-3.82,0.018C24.443,26.504,21.931,24.919,20.246,22.533z"/>
	<path d="M27.041,57h47.057c1.266,0,2.291-1.235,2.291-2.5S75.363,52,74.098,52H27.041c-1.265,0-2.29,1.235-2.29,2.5   S25.776,57,27.041,57z"/>
	<path d="M27.041,70h47.057c1.266,0,2.291-1.235,2.291-2.5S75.363,65,74.098,65H27.041c-1.265,0-2.29,1.235-2.29,2.5   S25.776,70,27.041,70z"/>
	<path d="M27.041,83h28.057c1.266,0,2.291-1.235,2.291-2.5S56.363,78,55.098,78H27.041c-1.265,0-2.29,1.235-2.29,2.5   S25.776,83,27.041,83z"/>
</g>
</svg>