<svg xmlns="http://www.w3.org/2000/svg" xmlns:xlink="http://www.w3.org/1999/xlink" version="1.1" x="0px" y="0px" width="100px" height="100px" viewBox="0 0 100 100" enable-background="new 0 0 100 100" xml:space="preserve">
<g id="Captions">
	<rect x="-744" y="-138" width="185" height="99"/>
	<rect x="-552" y="-174" width="100" height="30"/>
	<text transform="matrix(1 0 0 1 -486 -157.5)" fill="#000000" font-family="'Helvetica'" font-size="2.4">http://thenounproject.com</text>
	<text transform="matrix(1 0 0 1 -544.834 -162.5)"><tspan x="0" y="0" fill="#000000" font-family="'Helvetica-Bold'" font-size="6.1578">The Noun Project</tspan><tspan x="1.12" y="4.8" fill="#000000" font-family="'Helvetica-Bold'" font-size="4">Icon Template</tspan></text>
	<text transform="matrix(1 0 0 1 -730.5 -127.5)" fill="#000000" font-family="'Helvetica-Bold'" font-size="6.1578">Reminders</text>
	<line fill="#000000" stroke="#FFFFFF" stroke-miterlimit="10" x1="-544" y1="-152.5" x2="-534" y2="-152.5"/>
	<line fill="#000000" stroke="#FFFFFF" stroke-miterlimit="10" x1="-731" y1="-121.5" x2="-714" y2="-121.5"/>
	<g>
		<g>
			<g>
				<rect x="-722.802" y="-106.682" fill="#000000" width="8.721" height="8.642"/>
				<path fill="#000000" d="M-716.455-95.688h4.747v-4.703h-4.747V-95.688z M-711.266-95.251h-5.63v-5.579h5.63V-95.251      L-711.266-95.251z M-718.221-93.938h8.279v-8.203h-8.279V-93.938L-718.221-93.938z M-709.5-93.5h-9.163v-9.079h9.163V-93.5      L-709.5-93.5z"/>
				<polygon fill="#000000" points="-718.149,-93.867 -718.292,-94.009 -710.013,-102.213 -709.871,-102.071     "/>
			</g>
		</g>
	</g>
	<rect x="-731" y="-80" fill="none" width="35" height="32.5"/>
	<text transform="matrix(1 0 0 1 -731 -77.8428)"><tspan x="0" y="0" fill="#000000" font-family="'Helvetica-Bold'" font-size="3">Strokes</tspan><tspan x="0" y="5" fill="#000000" font-family="'Helvetica'" font-size="2.4">Try to keep strokes at 4px</tspan><tspan x="0" y="10" fill="#000000" font-family="'Helvetica'" font-size="2.4">Minimum stroke weight is 2px</tspan><tspan x="0" y="14.5" fill="#000000" font-family="'Helvetica'" font-size="2.4">For thicker strokes use even </tspan><tspan x="0" y="17.5" fill="#000000" font-family="'Helvetica'" font-size="2.4">numbers: 6px, 8px etc.</tspan><tspan x="0" y="22" fill="#000000" font-family="'Helvetica-Bold'" font-size="2.4">Remember to expand strokes </tspan><tspan x="0" y="25" fill="#000000" font-family="'Helvetica-Bold'" font-size="2.4">before saving as an SVG </tspan></text>
	<rect x="-688.5" y="-80" fill="none" width="35" height="32.5"/>
	<text transform="matrix(1 0 0 1 -688.5 -77.8428)"><tspan x="0" y="0" fill="#000000" font-family="'Helvetica-Bold'" font-size="3">Size</tspan><tspan x="0" y="5" fill="#000000" font-family="'Helvetica'" font-size="2.4">Cannot be wider or taller than </tspan><tspan x="0" y="8.5" fill="#000000" font-family="'Helvetica'" font-size="2.4">100px (artboard size)</tspan><tspan x="0" y="13.5" fill="#000000" font-family="'Helvetica'" font-size="2.4">Scale your icon to fill as much of </tspan><tspan x="0" y="16.5" fill="#000000" font-family="'Helvetica'" font-size="2.4">the artboard as possible</tspan></text>
	<rect x="-646" y="-80" fill="none" width="35" height="32.5"/>
	<text transform="matrix(1 0 0 1 -646 -77.8428)"><tspan x="0" y="0" fill="#000000" font-family="'Helvetica-Bold'" font-size="3">Ungroup</tspan><tspan x="0" y="5" fill="#000000" font-family="'Helvetica'" font-size="2.4">If your design has more than one </tspan><tspan x="0" y="8" fill="#000000" font-family="'Helvetica'" font-size="2.4">shape, make sure to ungroup</tspan></text>
	<rect x="-602" y="-80" fill="none" width="35" height="32.5"/>
	<text transform="matrix(1 0 0 1 -602 -77.8428)"><tspan x="0" y="0" fill="#000000" font-family="'Helvetica-Bold'" font-size="3">Save as</tspan><tspan x="0" y="5" fill="#000000" font-family="'Helvetica'" font-size="2.4">Save as .SVG and make sure </tspan><tspan x="0" y="8" fill="#000000" font-family="'Helvetica'" font-size="2.4">&#8220;Use Artboards&#8221; is checked</tspan></text>
	<text transform="matrix(1.0074 0 0 1 -677.542 -107.4067)" fill="#000000" font-family="'Helvetica'" font-size="2.5731">100px</text>
	<text transform="matrix(1.0074 0 0 1 -593 -99)" fill="#000000" font-family="'Helvetica-Bold'" font-size="5.1462">.SVG</text>
	<rect x="-678.514" y="-103.185" fill="#000000" width="10.261" height="10.185"/>
	<rect x="-678.477" y="-106.234" fill="#000000" width="0.522" height="2.337"/>
	<rect x="-668.812" y="-106.234" fill="#000000" width="0.523" height="2.337"/>
	<rect x="-679" y="-105.663" fill="#000000" width="11.233" height="0.572"/>
	<g>
		<rect x="-635.805" y="-104.156" fill="#000000" width="10.305" height="10.156"/>
		<rect x="-628.809" y="-109.293" fill="#000000" width="3.308" height="3.261"/>
	</g>
	<rect x="-730.5" y="-115.5" fill="#000000" stroke="#FFFFFF" stroke-miterlimit="10" width="30" height="30"/>
	<rect x="-688.5" y="-115.5" fill="#000000" stroke="#FFFFFF" stroke-miterlimit="10" width="30" height="30"/>
	<rect x="-645.5" y="-115.5" fill="#000000" stroke="#FFFFFF" stroke-miterlimit="10" width="30" height="30"/>
	<rect x="-601.5" y="-115.5" fill="#000000" stroke="#FFFFFF" stroke-miterlimit="10" width="30" height="30"/>
</g>
<g id="Your_Icon">
	<g>
		<path d="M-517.384-86.472c4.111,2.507,8.986,3.344,15.384,3.344s11.545-1.256,15.384-3.342c1.705-0.927,4.28-4.448,6.797-9.002    c10.399-0.473,16.714-6.496,16.857-12.412c0.09-3.687-2.324-8.009-9.133-9.247c0.069-0.708,0.111-1.393,0.111-2.044    c0-3.087,0-11.289-30.017-11.289s-30.017,8.202-30.017,11.29C-532.017-108.524-521.682-89.093-517.384-86.472z M-475.149-117.455    l-0.179,4.458l0,0L-475.149-117.455z M-472.882-112h0.002c3.46,0,5.512,1.996,5.455,4.369c-0.069,2.813-3.322,6.87-9.988,7.956    C-475.516-103.735-473.85-108-472.882-112z M-525.318-119.173c0-2.536,10.439-4.592,23.318-4.592s23.318,2.056,23.318,4.592    s-10.439,4.592-23.318,4.592S-525.318-116.637-525.318-119.173z"/>
		<path d="M-453.191-74.783c-0.486-0.2-1.008-0.19-1.463-0.016l-0.73,0.297l-2.503,1.005c-1.577,0.633-3.438,0.615-5.159-0.098    c-1.707-0.709-2.906-2.082-3.569-3.648c-0.639-1.576-0.77-3.41-0.061-5.119c0.713-1.721,2.017-3.048,3.575-3.717l2.483-1.059    l0.727-0.307c0.442-0.199,0.822-0.557,1.022-1.045c0.405-0.977-0.044-2.093-1.005-2.489l-0.148-0.063    c-2.917-1.014-6.173-0.936-9.26,0.379c-4.48,1.917-7.439,6.021-8.106,10.569l-7.079,2.926L-502-69.905l-17.532-7.264l-7.079-2.926    c-0.667-4.548-3.626-8.652-8.106-10.569c-3.087-1.314-6.343-1.393-9.26-0.379l-0.148,0.063c-0.961,0.396-1.41,1.513-1.005,2.489    c0.2,0.488,0.58,0.846,1.022,1.045l0.727,0.307l2.483,1.059c1.559,0.669,2.862,1.996,3.575,3.717    c0.709,1.709,0.578,3.543-0.061,5.119c-0.663,1.566-1.862,2.939-3.569,3.648c-1.721,0.713-3.582,0.73-5.159,0.098l-2.503-1.005    l-0.73-0.297c-0.455-0.175-0.977-0.185-1.463,0.016c-0.977,0.403-1.447,1.511-1.051,2.472l0.063,0.148    c1.345,2.78,3.702,5.023,6.815,6.279c4.522,1.812,9.52,1.012,13.215-1.735l7.066,2.919l5.067,2.101l-9.925,4.112    c-1.581,0.658-2.883,1.978-3.589,3.68c-1.413,3.414,0.2,7.315,3.615,8.728c1.702,0.707,3.558,0.718,5.141,0.065l22.39-9.278    l22.39,9.278c1.583,0.652,3.438,0.642,5.141-0.065c3.415-1.412,5.028-5.313,3.615-8.728c-0.706-1.702-2.008-3.021-3.589-3.68    l-9.925-4.112l5.067-2.101l7.066-2.919c3.695,2.747,8.692,3.548,13.215,1.735c3.113-1.256,5.471-3.499,6.815-6.279l0.063-0.148    C-451.744-73.272-452.215-74.38-453.191-74.783z M-524.146-51.596c-0.504,1.217-1.901,1.794-3.118,1.291    c-1.216-0.504-1.794-1.901-1.29-3.118c0.506-1.217,1.901-1.795,3.117-1.291C-524.22-54.21-523.642-52.812-524.146-51.596z     M-478.563-54.714c1.216-0.504,2.611,0.074,3.117,1.291c0.504,1.217-0.074,2.614-1.29,3.118c-1.217,0.503-2.614-0.074-3.118-1.291    S-479.78-54.21-478.563-54.714z"/>
	</g>
	<path d="M-349.521-90.566c-1.031,1.034-1.879,0.685-1.879-0.776v-20.032c0-1.46-0.841-1.81-1.872-0.779l-21.593,21.587   c-1.031,1.034-2.003,0.69-2.157-0.761l-4.746-44.03c-0.157-1.455-1.481-2.643-2.939-2.643h-9.403c-1.464,0-2.72,1.194-2.797,2.655   l-5.031,94.691c-0.08,1.46,1.055,2.654,2.513,2.654h70.716c1.458,0,2.654-1.197,2.654-2.657v-70.716c0-1.46-0.844-1.81-1.875-0.779   L-349.521-90.566z M-351.4-53.329c0,1.46-1.19,2.654-2.651,2.654h-20.031c-1.464,0-2.654-1.194-2.654-2.654v-20.032   c0-1.46,1.19-2.654,2.654-2.654h20.031c1.461,0,2.651,1.194,2.651,2.654V-53.329z"/>
	<path d="M-176.529-94.312l-14.556-8.454l14.556-8.456c0.327-0.189,0.529-0.54,0.529-0.918s-0.202-0.726-0.529-0.915l-32.801-18.935   c-0.327-0.189-0.733-0.192-1.061,0.002L-226-122.923l-15.606-9.065c-0.33-0.194-0.733-0.192-1.063-0.002l-32.801,18.935   c-0.327,0.189-0.529,0.537-0.529,0.915s0.202,0.729,0.529,0.918l14.556,8.456l-14.556,8.454c-0.327,0.189-0.529,0.54-0.529,0.918   c0,0.378,0.202,0.729,0.529,0.917l15.606,9.007v19.609c0,0.379,0.202,0.729,0.529,0.918l32.801,18.935   c0.022,0.013,0.051,0.018,0.076,0.03c0.031,0.016,0.06,0.026,0.087,0.036c0.12,0.044,0.24,0.074,0.366,0.074   c0.125,0,0.245-0.03,0.362-0.074c0.031-0.01,0.06-0.021,0.087-0.036c0.028-0.01,0.057-0.018,0.08-0.03l32.801-18.935   c0.327-0.189,0.528-0.539,0.528-0.918v-19.603l15.617-9.014c0.327-0.189,0.526-0.54,0.529-0.917   C-176-93.772-176.202-94.123-176.529-94.312z M-209.856-129.848l30.679,17.713l-14.024,8.147l-30.682-17.713L-209.856-129.848z    M-272.822-112.135l30.682-17.713l14.021,8.145l-30.685,17.713L-272.822-112.135z M-272.825-93.399l14.021-8.142l30.685,17.71   l-14.021,8.146L-272.825-93.399z M-227.063-46.764l-30.682-17.71v-17.772l15.075,8.702c0.166,0.095,0.348,0.144,0.529,0.144   c0.187,0,0.368-0.049,0.534-0.146l14.551-8.452L-227.063-46.764z M-224.944-85.952c0,0.585-0.476,1.058-1.061,1.058   c-0.586,0-1.062-0.473-1.062-1.058v-33.627c0-0.588,0.476-1.061,1.062-1.061c0.585,0,1.061,0.473,1.061,1.061V-85.952z    M-194.266-64.474l-30.679,17.71l0.011-35.227l14.543,8.444c0.327,0.191,0.733,0.191,1.061,0.002l15.064-8.696V-64.474z    M-209.856-75.686l-14.024-8.146l30.679-17.715l14.024,8.147L-209.856-75.686z"/>
	<g>
		<path d="M-88.002-93.083c2.422-5.869,12.434-30.137,13.147-31.879C-74.914-132.162-80.79-138-88.002-138    s-13.087,5.838-13.146,13.038C-100.434-123.221-90.423-98.952-88.002-93.083z"/>
		<path d="M-55.188-117.21c-2.485-2.485-5.788-3.854-9.299-3.854c-3.474,0-6.744,1.338-9.216,3.772L-86.951-85.45l30.178-12.557    l1.66-0.692c2.435-2.474,3.774-5.743,3.774-9.216C-51.337-111.425-52.705-114.727-55.188-117.21z"/>
		<path d="M-102.298-117.288c-2.475-2.436-5.741-3.776-9.218-3.776c-3.512,0-6.812,1.368-9.295,3.85    c-5.099,5.103-5.123,13.386-0.077,18.516l8.968,3.731l22.868,9.517L-102.298-117.288z"/>
		<path d="M-121.255-97.547c-7.25,0-13.146,5.898-13.146,13.147c0,7.248,5.896,13.146,13.146,13.146    c0.046,0,0.093,0.006,0.135,0.017L-89.475-84.4l-31.652-13.172C-121.173-97.556-121.215-97.547-121.255-97.547z"/>
		<path d="M-55.19-51.592c5.092-5.092,5.123-13.379,0.082-18.51l-31.84-13.249l13.243,31.836c2.477,2.435,5.746,3.775,9.22,3.775    C-60.974-47.739-57.674-49.108-55.19-51.592z"/>
		<path d="M-54.879-71.232c0.042-0.015,0.087-0.021,0.131-0.021c7.249,0,13.149-5.898,13.149-13.146    c0-7.249-5.9-13.147-13.149-13.147c-0.049,0-0.095-0.006-0.142-0.018L-86.529-84.4L-54.879-71.232z"/>
		<path d="M-88.002-38c7.217,0,13.116-5.872,13.147-13.088c0-0.062,0.011-0.12,0.028-0.176l-13.173-31.663l-13.176,31.673    c0.021,0.052,0.031,0.108,0.031,0.166C-101.114-43.872-95.219-38-88.002-38z"/>
		<path d="M-89.052-83.352l-31.825,13.238c-5.057,5.126-5.032,13.423,0.066,18.521c2.483,2.483,5.783,3.853,9.295,3.853    c3.477,0,6.748-1.342,9.225-3.779L-89.052-83.352z"/>
	</g>
	<g>
		<g>
			<path d="M97.827-98.034L50-122.117L2.173-98.034c-1.948,0.978-2.73,3.353-1.75,5.301c0.983,1.949,3.355,2.73,5.299,1.75     l2.008-1.01v34.823c0,1.814,1.478,3.287,3.291,3.287h11.513h54.932h11.515c1.813,0,3.289-1.473,3.289-3.287v-34.823l2.007,1.01     c0.566,0.287,1.174,0.422,1.772,0.422c1.443,0,2.833-0.795,3.529-2.172C100.558-94.681,99.775-97.056,97.827-98.034z      M78.124-79.65H21.876v-8.114c0-0.355,0.302-0.657,0.657-0.657h54.932c0.357,0,0.659,0.302,0.659,0.657V-79.65z M21.876-77.018     h56.248v9.1H21.876V-77.018z M22.533-56.514c-0.355,0-0.657-0.303-0.657-0.656v-8.117h56.248v8.117     c0,0.354-0.302,0.656-0.659,0.656H22.533z M89.636-57.17c0,0.354-0.301,0.656-0.656,0.656H80.69     c0.044-0.213,0.063-0.432,0.063-0.656v-30.594c0-1.816-1.473-3.289-3.289-3.289H22.533c-1.814,0-3.287,1.473-3.287,3.289v30.594     c0,0.225,0.02,0.443,0.063,0.656h-8.289c-0.355,0-0.656-0.303-0.656-0.656v-36.148L50-113.281l39.636,19.963V-57.17z"/>
			<path d="M40.956-103.168v5.264c0,1.812,1.471,3.284,3.287,3.284h11.514c1.814,0,3.287-1.473,3.287-3.284v-5.264     c0-1.814-1.473-3.292-3.287-3.292H44.243C42.427-106.46,40.956-104.982,40.956-103.168z M44.243-103.828h4.443v1.973h-5.103     v-1.313C43.584-103.524,43.885-103.828,44.243-103.828z M43.584-97.904v-1.321h5.103v1.976h-4.443     C43.885-97.25,43.584-97.549,43.584-97.904z M55.757-97.25h-4.443v-1.976h5.101v1.321C56.414-97.549,56.112-97.25,55.757-97.25z      M56.414-103.168v1.313h-5.101v-1.973h4.443C56.112-103.828,56.414-103.524,56.414-103.168z"/>
		</g>
	</g>
	<g>
		<path d="M-479.17,22.761c-9.56,0-17.948,4.937-22.804,12.39c-4.854-7.453-13.244-12.39-22.801-12.39    c-15.026,0-27.208,12.182-27.208,27.211c0,15.023,12.182,27.259,27.208,27.259c4.68,0,9.072-1.23,12.913-3.23    c-6.388,0-13.02,0-13.053,0c0,0,27.217-38.928,27.263-38.997c0.021-0.025,0.041-0.071,0.067-0.097    c0.682-0.943,1.549-1.755,2.545-2.379c1.011-0.641,2.154-1.096,3.381-1.306c0.503-0.088,1.021-0.139,1.55-0.139    c0.523,0,1.031,0.049,1.529,0.134c4.161,0.692,7.373,4.141,7.702,8.409l7.42,3.674L-481,46.957v4.908c0,0.021,0,0.046,0,0.066    c0,9.23-5.66,17.112-13.731,20.365c4.392,3.062,9.756,4.883,15.523,4.883c15.029,0,27.228-12.185,27.228-27.208    C-451.98,34.942-464.141,22.761-479.17,22.761z"/>
		<circle cx="-489.037" cy="39.658" r="1.365"/>
	</g>
	<path d="M-338.996,36h-50.006c-13.806,0-24.997,11.15-24.997,24.959s11.191,25.055,24.997,25.055c6.23,0,11.919-2.014,16.296-6.014   h17.408c4.381,4,10.066,5.992,16.297,5.992c13.809,0,25-11.188,25-24.995C-314.001,47.19-325.192,36-338.996,36z M-373,66h-11v11   h-10V66h-10V56h10V45h10v11h11V66z M-344.19,76.513c-2.874,0-5.204-2.327-5.204-5.196c0-2.872,2.33-5.199,5.204-5.199   c2.865,0,5.194,2.327,5.194,5.199C-338.996,74.186-341.325,76.513-344.19,76.513z M-333.802,55.719   c-2.869,0-5.194-2.327-5.194-5.199s2.325-5.199,5.194-5.199c2.875,0,5.202,2.327,5.202,5.199S-330.927,55.719-333.802,55.719z"/>
	<g>
		<rect x="-366" y="-14" width="4" height="51"/>
	</g>
	<path fill-rule="evenodd" clip-rule="evenodd" d="M-194.691,35.693c-2.505-0.461-9.614,1.483-13.699,2.492   c-5.373,1.324-9.98,2.824-12.158,6.254c-4.398,6.925-10.306,14.762-10.258,22.39c0.057,8.925,7.182,18.045,12.266,24.21   c1.467,1.777,3.672,1.903,5.305,1.757c8.548-0.769,19.62-3.71,23.49-6.039c2.975-1.79,14.036-16.731,13.74-23.664   C-176.334,55.51-186.262,37.238-194.691,35.693z M-220.46,53.129c0.901,0,1.631,1.118,1.631,2.498c0,1.379-0.729,2.498-1.631,2.498   s-1.631-1.119-1.631-2.498C-222.091,54.247-221.361,53.129-220.46,53.129z M-226.983,69.863c-0.901,0-1.631-1.119-1.631-2.498   c0-1.38,0.729-2.498,1.631-2.498s1.631,1.118,1.631,2.498C-225.353,68.744-226.082,69.863-226.983,69.863z M-223.722,63.994   c-0.901,0-1.631-1.119-1.631-2.498c0-1.38,0.729-2.498,1.631-2.498s1.631,1.118,1.631,2.498   C-222.091,62.875-222.82,63.994-223.722,63.994z M-221.066,82.396c-0.901,0-1.631-1.118-1.631-2.498   c0-1.379,0.729-2.498,1.631-2.498c0.9,0,1.631,1.119,1.631,2.498C-219.436,81.278-220.166,82.396-221.066,82.396z M-217.805,76.527   c-0.901,0-1.631-1.118-1.631-2.498c0-1.379,0.729-2.498,1.631-2.498c0.9,0,1.631,1.119,1.631,2.498   C-216.174,75.409-216.904,76.527-217.805,76.527z M-214.543,70.658c-0.901,0-1.631-1.118-1.631-2.498   c0-1.379,0.729-2.498,1.631-2.498c0.9,0,1.631,1.119,1.631,2.498C-212.912,69.54-213.643,70.658-214.543,70.658z M-212.725,49.584   c-0.857-1.26-0.705-2.857,0.342-3.572c1.047-0.713,2.591-0.271,3.449,0.988c0.858,1.258,0.705,2.857-0.341,3.57   C-210.322,51.285-211.866,50.843-212.725,49.584z M-205.86,88.688c-1.419,0.856-3.003,0.831-3.538-0.056   c-0.534-0.887,0.182-2.299,1.601-3.155s3.003-0.831,3.538,0.056C-203.726,86.42-204.441,87.832-205.86,88.688z M-208.391,75.547   c-2.784-0.537-0.503-6.136-1.244-8.718c3.921-0.601,2.82,3.825,7.472,2.492C-204.025,71.607-207.359,72.428-208.391,75.547z    M-200.857,65.32c-1.047,0.715-2.592,0.272-3.449-0.986c-0.858-1.26-0.706-2.857,0.341-3.572c1.047-0.713,2.591-0.271,3.45,0.988   C-199.658,63.008-199.811,64.607-200.857,65.32z M-193.441,46.404c-1.047,0.715-2.592,0.271-3.449-0.986   c-0.858-1.26-0.706-2.858,0.341-3.572s2.591-0.271,3.45,0.987C-192.242,44.092-192.395,45.691-193.441,46.404z M-188.475,60.168   c-0.857-1.26-0.705-2.858,0.342-3.572s2.591-0.271,3.449,0.987s0.705,2.858-0.341,3.571   C-186.072,61.869-187.616,61.426-188.475,60.168z M-184.027,73.137c-1.419,0.856-3.002,0.832-3.537-0.055s0.182-2.3,1.6-3.156   c1.419-0.855,3.002-0.83,3.537,0.057S-182.609,72.281-184.027,73.137z"/>
	<path fill-rule="evenodd" clip-rule="evenodd" d="M-260.572,6.506c-9.633,9.768-16.347,27.355-15.325,44.571   c0.129,2.185,0.533,3.254,1.891,4.351c6.969,5.63,16.785,8.412,28.237,9.557c1.44,0.145,3.134-0.754,3.763-1.766   c7.463-12.023,13.133-25.842,13.652-44.809c0.039-1.455,0.157-1.702-0.642-2.3c-6.593-4.941-20.312-8.521-27.31-10.046   C-258.171,5.66-259.874,5.799-260.572,6.506z M-240.001,32.535c0,1.381-1.567,2.5-3.5,2.5s-3.5-1.119-3.5-2.5s1.567-2.5,3.5-2.5   S-240.001,31.154-240.001,32.535z M-249.501,20.035c1.933,0,3.5,1.119,3.5,2.5s-1.567,2.5-3.5,2.5s-3.5-1.119-3.5-2.5   S-251.434,20.035-249.501,20.035z M-256.501,10.035c1.933,0,3.5,1.119,3.5,2.5s-1.567,2.5-3.5,2.5s-3.5-1.119-3.5-2.5   S-258.434,10.035-256.501,10.035z M-265.518,54.365c-0.723,1.178-2.644,1.312-4.291,0.301s-2.397-2.784-1.676-3.961   c0.723-1.178,2.644-1.312,4.291-0.301S-264.796,53.188-265.518,54.365z M-262.518,40.365c-0.723,1.178-2.644,1.312-4.291,0.301   s-2.397-2.784-1.676-3.961c0.723-1.178,2.644-1.312,4.291-0.301S-261.796,39.188-262.518,40.365z M-255.518,50.365   c-0.723,1.178-2.644,1.312-4.291,0.301s-2.397-2.784-1.676-3.961c0.723-1.178,2.644-1.312,4.291-0.301   S-254.796,49.188-255.518,50.365z M-248.518,60.365c-0.723,1.178-2.644,1.312-4.291,0.301s-2.397-2.784-1.676-3.961   c0.723-1.178,2.644-1.312,4.291-0.301S-247.796,59.188-248.518,60.365z M-245.518,46.365c-0.723,1.178-2.644,1.312-4.291,0.301   s-2.397-2.784-1.676-3.961c0.723-1.178,2.644-1.312,4.291-0.301S-244.796,45.188-245.518,46.365z M-244.514,40.299   c0.519-2.802,6.828,0.186,6.228-3.738c3.241,1.735-0.907,6.448-1.246,8.721C-242.072,44.498-239.881,38.987-244.514,40.299z"/>
	<path d="M-77.704,50.877l16.165-16.164l8.194,8.193l9.095-0.31l-12.587-12.586l-2.608-2.607l14.628-14.625   c1.796,0.249,3.683-0.293,5.062-1.675c2.339-2.341,2.339-6.132,0.003-8.472c-2.342-2.34-6.134-2.34-8.473,0   c-1.383,1.383-1.926,3.268-1.677,5.065l-14.625,14.624l-2.606-2.605L-79.719,7.128l-0.31,9.095l8.193,8.195l-16.162,16.165   l-16.169-16.168l8.193-8.193l-0.31-9.095l-12.586,12.586l-2.606,2.607L-126.1,7.695c0.249-1.796-0.291-3.681-1.674-5.063   c-2.339-2.34-6.131-2.34-8.47-0.001c-2.343,2.341-2.343,6.132,0,8.473c1.38,1.382,3.267,1.924,5.062,1.673l14.625,14.625   l-2.605,2.605l-12.59,12.588l9.098,0.309l8.194-8.193l16.165,16.167l-37.188,37.188l-0.761,11.059l42.758-43.44l4.727-4.801   l0.762-0.773l4.723-4.801l16.039-16.292l1.098,1.099l-16.29,16.038l-4.809,4.729l-0.761,0.749l-4.806,4.734l-43.44,42.758   l11.054-0.764l37.192-37.189l37.186,37.188l11.06,0.764l-43.44-42.758l0.683-0.682l42.758,43.439l-0.767-11.059L-77.704,50.877z    M-93.567,46.149L-109.86,30.11l1.098-1.098l16.039,16.296L-93.567,46.149z"/>
	<path d="M79.605,7.18c-0.558,3.083-13.598,75.437-13.974,77.6c-0.851,4.887-4.48,8.916-9.242,10.273   c-6.889,1.959-14.085-2.052-16.044-8.935L20.854,17.552c-1.552-5.459,1.627-11.16,7.084-12.712   c5.456-1.549,11.156,1.627,12.709,7.087l13.723,48.272c1.051,3.686-1.096,7.541-4.781,8.586c-3.691,1.051-7.54-1.099-8.592-4.787   L29.84,24.738l-4.28,1.215l11.157,39.265c1.721,6.045,8.041,9.567,14.085,7.847c6.045-1.72,9.567-8.037,7.848-14.085L44.926,10.71   C42.705,2.894,34.539-1.658,26.724,0.563C18.907,2.784,14.353,10.953,16.58,18.77l19.486,68.562   c2.627,9.245,12.289,14.63,21.538,12.002c6.395-1.821,11.27-7.234,12.414-13.791c0.375-2.149,13.829-76.817,13.967-77.575   L79.605,7.18z"/>
</g>
</svg>