<svg xmlns="http://www.w3.org/2000/svg" xmlns:xlink="http://www.w3.org/1999/xlink" version="1.1" id="Layer_1" x="0px" y="0px" width="100px" height="100px" viewBox="0 0 100 100" enable-background="new 0 0 100 100" xml:space="preserve">
<g id="Your_Icon">
	<path d="M73.525,41.43c-2.264,0-4.096,1.985-4.096,4.436v-3.205c0-2.446-1.83-4.434-4.093-4.434c-2.114,0-4.896,1.738-5.11,3.964   c-0.215-3.432-1.761-6.16-4.994-6.16c-3.354,0-6.075,2.949-6.075,6.588V32h-8.193v21.936c-3.272,0.273-4.947-1.395-6.422-2.992   c-1.687-1.828-3.378-10.794-7.935-8.875c-4.565,1.922-1.653,13.313,4.383,19.849c3.11,3.364,8.27,10.427,10.567,16.494   C43.741,84.146,43.155,89,43.155,89h30.078V73.812c0-8.127,4.261-8.082,4.365-15.392l0.028-0.022V45.866   C77.627,43.415,75.791,41.43,73.525,41.43z"/>
	<path d="M49.157,13.275c0-2.453-1.839-4.436-4.099-4.436c-2.263,0-4.094,1.983-4.094,4.436V22h8.193V13.275z"/>
	<path d="M32.309,39.312c3.777,0,6.846-3.323,6.846-7.411v-1.92h6.687h5.629C52.867,29.981,54,28.517,54,27c0-1.513-1.133-3-2.529-3   h-5.629h-6.687v-5.087c0-1.517-1.132-2.747-2.534-2.747c-1.403,0-2.53,1.23-2.53,2.747V24H32.31c-3.771,0-6.836,3.819-6.836,7.901   C25.473,35.989,28.538,39.312,32.309,39.312z M32.309,29.981h1.781v1.92c0,1.059-0.801,1.922-1.781,1.922   c-0.974,0-1.771-0.863-1.771-1.922C30.538,30.846,31.335,29.981,32.309,29.981z"/>
</g>
</svg>