<svg xmlns="http://www.w3.org/2000/svg" xmlns:xlink="http://www.w3.org/1999/xlink" version="1.1" id="Layer_1" x="0px" y="0px" width="100px" height="100px" viewBox="0 0 100 100" enable-background="new 0 0 100 100" xml:space="preserve">
<g id="Foot_Print_2_">
	<g>
		<path fill-rule="evenodd" clip-rule="evenodd" fill="#000000" d="M30.524,70.905c-2.69-4.157-2.201-15.403-0.979-22.005    c0.935-5.049,8.558-9.291,7.58-23.717c-0.515-7.578-8.313-9.291-13.203-9.291c-4.891,0-19.071,15.892-19.805,19.56    c-0.733,3.667,6.846,22.495,8.558,27.385c1.712,4.89,5.624,26.65,8.068,32.029c2.445,5.379,17.849,8.558,20.538-0.978    C43.972,84.354,33.213,75.062,30.524,70.905z M1.736,23.311c-2.616,1.643,0.013,11.141,3.954,7.644    C9.63,27.457,4.353,21.669,1.736,23.311z M10.469,23.576c3.983-1.558,0.509-10.329-3.393-9.254S6.485,25.134,10.469,23.576z     M15.165,18.221c4.225-0.612,1.468-11.161-2.535-10.285C8.626,8.812,10.938,18.832,15.165,18.221z M21.542,14.523    c4.644,0.291,4.722-11.021-0.863-11.669C15.091,2.208,16.899,14.232,21.542,14.523z M28.079,14.67    c1.956,0.733,7.09,2.934,8.313,0.978C37.614,13.692,39.081,0,30.279,0c-3.178,0-5.623,4.4-4.646,8.068    C26.611,11.735,26.123,13.937,28.079,14.67z"/>
	</g>
</g>
<g id="Foot_Print_Right">
	<g>
		<path fill-rule="evenodd" clip-rule="evenodd" fill="#000000" d="M76.763,15.893c-4.89,0-12.688,1.712-13.202,9.291    c-0.978,14.426,6.644,18.667,7.58,23.717c1.221,6.602,1.71,17.848-0.979,22.005c-2.689,4.156-13.448,13.448-10.758,22.983    c2.688,9.535,18.092,6.356,20.537,0.978s6.357-27.14,8.068-32.029c1.712-4.89,9.291-23.717,8.558-27.385    S81.653,15.893,76.763,15.893z M98.949,23.311c-2.615-1.642-7.894,4.146-3.953,7.644C98.937,34.452,101.565,24.954,98.949,23.311z     M90.217,23.576c3.983,1.558,7.295-8.179,3.393-9.254C89.708,13.247,86.233,22.018,90.217,23.576z M85.521,18.221    c4.226,0.611,6.539-9.409,2.535-10.285C84.053,7.06,81.296,17.609,85.521,18.221z M79.145,14.523    c4.642-0.292,6.45-12.315,0.863-11.669C74.422,3.502,74.501,14.814,79.145,14.523z M72.607,14.67    c1.955-0.733,1.467-2.935,2.444-6.602C76.029,4.4,73.585,0,70.406,0c-8.803,0-7.335,13.692-6.113,15.647    C65.517,17.604,70.651,15.403,72.607,14.67z"/>
	</g>
</g>
</svg>