<svg xmlns="http://www.w3.org/2000/svg" xmlns:xlink="http://www.w3.org/1999/xlink" version="1.1" x="0px" y="0px" width="100px" height="100px" viewBox="0 0 100 100" enable-background="new 0 0 100 100" xml:space="preserve">
<g id="Captions">
	<rect x="-192" width="185" height="99"/>
	<rect y="-36" width="100" height="30"/>
	<text transform="matrix(1 0 0 1 66 -19.5)" fill="#000000" font-family="'Helvetica'" font-size="2.4">http://thenounproject.com</text>
	<text transform="matrix(1 0 0 1 7.166 -24.5)"><tspan x="0" y="0" fill="#000000" font-family="'Helvetica-Bold'" font-size="6.1578">The Noun Project</tspan><tspan x="1.12" y="4.8" fill="#000000" font-family="'Helvetica-Bold'" font-size="4">Icon Template</tspan></text>
	<text transform="matrix(1 0 0 1 -178.5 10.5)" fill="#000000" font-family="'Helvetica-Bold'" font-size="6.1578">Reminders</text>
	<line fill="#000000" stroke="#FFFFFF" stroke-miterlimit="10" x1="8" y1="-14.5" x2="18" y2="-14.5"/>
	<line fill="#000000" stroke="#FFFFFF" stroke-miterlimit="10" x1="-179" y1="16.5" x2="-162" y2="16.5"/>
	<g>
		<g>
			<g>
				<rect x="-170.802" y="31.318" fill="#000000" width="8.721" height="8.642"/>
				<path fill="#000000" d="M-164.455,42.312h4.747v-4.703h-4.747V42.312z M-159.266,42.749h-5.63V37.17h5.63V42.749      L-159.266,42.749z M-166.221,44.062h8.279v-8.203h-8.279V44.062L-166.221,44.062z M-157.5,44.5h-9.163v-9.079h9.163V44.5      L-157.5,44.5z"/>
				<polygon fill="#000000" points="-166.149,44.133 -166.292,43.991 -158.013,35.787 -157.871,35.929     "/>
			</g>
		</g>
	</g>
	<rect x="-179" y="58" fill="none" width="35" height="32.5"/>
	<text transform="matrix(1 0 0 1 -179 60.1572)"><tspan x="0" y="0" fill="#000000" font-family="'Helvetica-Bold'" font-size="3">Strokes</tspan><tspan x="0" y="5" fill="#000000" font-family="'Helvetica'" font-size="2.4">Try to keep strokes at 4px</tspan><tspan x="0" y="10" fill="#000000" font-family="'Helvetica'" font-size="2.4">Minimum stroke weight is 2px</tspan><tspan x="0" y="14.5" fill="#000000" font-family="'Helvetica'" font-size="2.4">For thicker strokes use even </tspan><tspan x="0" y="17.5" fill="#000000" font-family="'Helvetica'" font-size="2.4">numbers: 6px, 8px etc.</tspan><tspan x="0" y="22" fill="#000000" font-family="'Helvetica-Bold'" font-size="2.4">Remember to expand strokes </tspan><tspan x="0" y="25" fill="#000000" font-family="'Helvetica-Bold'" font-size="2.4">before saving as an SVG </tspan></text>
	<rect x="-136.5" y="58" fill="none" width="35" height="32.5"/>
	<text transform="matrix(1 0 0 1 -136.5 60.1572)"><tspan x="0" y="0" fill="#000000" font-family="'Helvetica-Bold'" font-size="3">Size</tspan><tspan x="0" y="5" fill="#000000" font-family="'Helvetica'" font-size="2.4">Cannot be wider or taller than </tspan><tspan x="0" y="8.5" fill="#000000" font-family="'Helvetica'" font-size="2.4">100px (artboard size)</tspan><tspan x="0" y="13.5" fill="#000000" font-family="'Helvetica'" font-size="2.4">Scale your icon to fill as much of </tspan><tspan x="0" y="16.5" fill="#000000" font-family="'Helvetica'" font-size="2.4">the artboard as possible</tspan></text>
	<rect x="-94" y="58" fill="none" width="35" height="32.5"/>
	<text transform="matrix(1 0 0 1 -94 60.1572)"><tspan x="0" y="0" fill="#000000" font-family="'Helvetica-Bold'" font-size="3">Ungroup</tspan><tspan x="0" y="5" fill="#000000" font-family="'Helvetica'" font-size="2.4">If your design has more than one </tspan><tspan x="0" y="8" fill="#000000" font-family="'Helvetica'" font-size="2.4">shape, make sure to ungroup</tspan></text>
	<rect x="-50" y="58" fill="none" width="35" height="32.5"/>
	<text transform="matrix(1 0 0 1 -50 60.1572)"><tspan x="0" y="0" fill="#000000" font-family="'Helvetica-Bold'" font-size="3">Save as</tspan><tspan x="0" y="5" fill="#000000" font-family="'Helvetica'" font-size="2.4">Save as .SVG and make sure </tspan><tspan x="0" y="8" fill="#000000" font-family="'Helvetica'" font-size="2.4">&#8220;Use Artboards&#8221; is checked</tspan></text>
	<text transform="matrix(1.0074 0 0 1 -125.542 30.5933)" fill="#000000" font-family="'Helvetica'" font-size="2.5731">100px</text>
	<text transform="matrix(1.0074 0 0 1 -41 39)" fill="#000000" font-family="'Helvetica-Bold'" font-size="5.1462">.SVG</text>
	<rect x="-126.514" y="34.815" fill="#000000" width="10.261" height="10.185"/>
	<rect x="-126.477" y="31.766" fill="#000000" width="0.522" height="2.337"/>
	<rect x="-116.812" y="31.766" fill="#000000" width="0.523" height="2.337"/>
	<rect x="-127" y="32.337" fill="#000000" width="11.233" height="0.572"/>
	<g>
		<rect x="-83.805" y="33.844" fill="#000000" width="10.305" height="10.156"/>
		<rect x="-76.809" y="28.707" fill="#000000" width="3.308" height="3.261"/>
	</g>
	<rect x="-178.5" y="22.5" fill="#000000" stroke="#FFFFFF" stroke-miterlimit="10" width="30" height="30"/>
	<rect x="-136.5" y="22.5" fill="#000000" stroke="#FFFFFF" stroke-miterlimit="10" width="30" height="30"/>
	<rect x="-93.5" y="22.5" fill="#000000" stroke="#FFFFFF" stroke-miterlimit="10" width="30" height="30"/>
	<rect x="-49.5" y="22.5" fill="#000000" stroke="#FFFFFF" stroke-miterlimit="10" width="30" height="30"/>
</g>
<g id="Your_Icon">
	<path fill="#000000" d="M933.41,252.733c-3.417,0-6.441,1.218-8.352,3.094c2.014,1.239,3.375,3.097,3.66,5.287   c0.256,1.967-0.39,3.896-1.704,5.511c1.155,0.662,2.5,1.15,3.968,1.408c0.431,0.076-0.117,1.017-0.725,1.976   c-0.492,0.774-1.147,0.997-0.883,1.261c0.629,0.63,3.814-0.204,5.8-2.521c0.757-0.883,2.791-1.26,3.36-1.497   c3.188-1.329,5.34-3.859,5.34-6.763C943.875,256.205,939.189,252.733,933.41,252.733z"/>
	<g>
		<path fill="#000000" d="M932.4,263.386l2.065,0.376l-0.363,1.995l-2.065-0.376L932.4,263.386z M933.833,255.229l2.162,0.393    l-0.47,2.58l-1.423,4.645l-1.028-0.186l0.29-4.852L933.833,255.229z"/>
	</g>
	<g>
		<path fill="#000000" d="M918.797,255.547c4.297,0,7.864,2.315,8.292,5.604c0.409,3.152-2.197,6.176-6.072,7.39    c-0.362,0.112,0.214,0.861,0.845,1.618c0.51,0.611,1.099,0.729,0.901,0.985c-0.141,0.181-0.484,0.276-0.951,0.276    c-1.117,0-2.935-0.548-4.321-1.797c-0.749-0.675-2.542-0.771-3.058-0.912c-2.891-0.786-5.026-2.723-5.351-5.221    c-0.479-3.684,3.164-7.193,8.136-7.84C917.753,255.58,918.279,255.547,918.797,255.547"/>
	</g>
	<g>
		<path fill="#000000" d="M916.26,259.352c0.383-0.324,0.878-0.525,1.488-0.604c0.8-0.104,1.49,0.001,2.068,0.314    c0.579,0.313,0.918,0.846,1.016,1.597c0.06,0.46-0.005,0.863-0.193,1.208c-0.109,0.208-0.336,0.486-0.679,0.833l-0.337,0.342    c-0.186,0.186-0.297,0.389-0.336,0.61c-0.025,0.14-0.021,0.353,0.013,0.636l-1.439,0.188c-0.057-0.602-0.054-1.021,0.008-1.263    c0.062-0.24,0.265-0.534,0.606-0.882l0.348-0.352c0.114-0.113,0.204-0.23,0.267-0.354c0.116-0.215,0.159-0.438,0.129-0.67    c-0.035-0.27-0.146-0.506-0.331-0.706c-0.187-0.2-0.488-0.274-0.905-0.22c-0.409,0.053-0.683,0.228-0.819,0.522    c-0.135,0.295-0.184,0.589-0.146,0.884l-1.534,0.199C915.393,260.619,915.652,259.859,916.26,259.352z M917.918,265.207    l1.588-0.207l0.199,1.535l-1.588,0.207L917.918,265.207z"/>
	</g>
	<path d="M69.441,20.186c-9.573,0-18.046,3.412-23.398,8.667c5.642,3.472,9.456,8.676,10.254,14.813   c0.717,5.51-1.092,10.916-4.773,15.439c3.236,1.855,7.004,3.223,11.115,3.945c1.207,0.213-0.327,2.848-2.029,5.535   c-1.379,2.168-3.216,2.793-2.474,3.531c1.762,1.764,10.687-0.57,16.248-7.064c2.121-2.475,7.82-3.529,9.415-4.193   c8.931-3.725,14.96-10.813,14.96-18.947C98.76,29.913,85.633,20.186,69.441,20.186z M73.059,57.354l-5.838-0.711l0.691-5.641   l5.836,0.713L73.059,57.354z M75.806,35.992l-3.224,13.221l-2.905-0.353l0.019-13.615l0.89-7.293l6.112,0.745L75.806,35.992z"/>
	<path d="M34.719,64.471C45.575,61.072,52.878,52.6,51.731,43.768C50.533,34.556,40.539,28.069,28.5,28.069   c-1.45,0-2.925,0.094-4.424,0.288C10.147,30.168-0.058,40.002,1.283,50.324c0.908,6.998,6.892,12.424,14.99,14.627   c1.444,0.393,6.468,0.662,8.566,2.553c3.885,3.5,8.977,5.035,12.106,5.035c1.308,0,2.271-0.268,2.665-0.775   c0.552-0.717-1.097-1.049-2.525-2.76C35.318,66.883,33.704,64.787,34.719,64.471z M26.596,59.434l-0.558-4.301l4.449-0.578   l0.559,4.301L26.596,59.434z M33.66,45.773c-0.306,0.584-0.941,1.363-1.901,2.334l-0.944,0.958c-0.52,0.52-0.832,1.09-0.941,1.71   c-0.071,0.393-0.057,0.985,0.036,1.782l-4.033,0.523c-0.159-1.686-0.15-2.862,0.022-3.537c0.175-0.673,0.742-1.495,1.699-2.469   l0.974-0.987c0.32-0.315,0.572-0.645,0.747-0.991c0.326-0.599,0.446-1.223,0.361-1.876c-0.098-0.754-0.41-1.415-0.928-1.977   c-0.522-0.562-1.368-0.768-2.536-0.616c-1.146,0.149-1.912,0.638-2.295,1.464c-0.377,0.827-0.515,1.65-0.407,2.475l-4.299,0.559   c-0.251-2.844,0.477-4.975,2.178-6.398c1.072-0.907,2.459-1.471,4.169-1.692c2.241-0.292,4.175,0.002,5.794,0.881   c1.623,0.879,2.572,2.369,2.846,4.473C34.369,43.677,34.188,44.806,33.66,45.773z"/>
</g>
</svg>