<svg xmlns="http://www.w3.org/2000/svg" xmlns:xlink="http://www.w3.org/1999/xlink" version="1.1" id="Calque_1" x="0px" y="0px" width="64px" height="64px" viewBox="0 0 64 64" enable-background="new 0 0 64 64" xml:space="preserve">
<g>
	<path fill="#000000" d="M1.364,12.252v32.467c0,3.405,2.761,6.166,6.166,6.166h2.266l5.225,5.224   c1.157,1.157,2.725,1.806,4.359,1.806c0.025,0,0.05,0,0.076-0.002c1.661-0.019,3.244-0.708,4.389-1.911l4.874-5.116h27.753   c3.404,0,6.166-2.761,6.166-6.166V12.252c0-3.405-2.762-6.166-6.166-6.166H7.529C4.124,6.086,1.363,8.847,1.364,12.252z    M7.529,12.252h48.942v32.467H26.075l-6.696,7.03l-7.031-7.03H7.529V12.252z"/>
	<path fill="#000000" d="M43.305,28.48c0-1.702-1.38-3.083-3.083-3.083h-5.139v-5.139c0-1.702-1.38-3.082-3.083-3.082   c-1.703,0-3.083,1.38-3.083,3.082v5.139h-5.139c-1.703,0-3.083,1.381-3.083,3.083c0,1.703,1.38,3.083,3.083,3.083h5.139v5.14   c0,1.702,1.38,3.083,3.083,3.083c1.703,0,3.083-1.381,3.083-3.083v-5.14h5.139C41.925,31.563,43.305,30.184,43.305,28.48z"/>
</g>
</svg>