<svg xmlns="http://www.w3.org/2000/svg" xmlns:xlink="http://www.w3.org/1999/xlink" version="1.1" id="Layer_1" x="0px" y="0px" width="12px" height="16px" viewBox="0 0 12 16" enable-background="new 0 0 12 16" xml:space="preserve">
<path d="M11,7.277V4c0-2.206-1.795-4-4-4H5C2.795,0,1,1.794,1,4v3.277C0.404,7.624,0,8.262,0,9v5c0,1.104,0.896,2,2,2h8  c1.104,0,2-0.896,2-2V9C12,8.262,11.596,7.624,11,7.277z M7,11.723V14H5v-2.277C4.404,11.376,4,10.738,4,10c0-1.104,0.896-2,2-2  s2,0.896,2,2C8,10.738,7.596,11.376,7,11.723z M9,7H3V4c0-1.103,0.896-2,2-2h2c1.104,0,2,0.897,2,2V7z"/>
</svg>