<svg xmlns="http://www.w3.org/2000/svg" xmlns:xlink="http://www.w3.org/1999/xlink" version="1.1" id="Layer_1" x="0px" y="0px" width="77.2727272727px" height="100px" viewBox="0 0 612 792" enable-background="new 0 0 612 792" xml:space="preserve">
<path fill="#000000" d="M372.728,162H126v468h360V275.272L372.728,162z M378,192.728L455.272,270H378V192.728z M144,612V180h216v108  h108v324H144z"/>
<path fill="#000000" d="M261,342v36v9v86.098c-6.891-2.354-15.13-2.845-23.564-0.947c-19.396,4.364-32.467,19.695-29.194,34.243  c3.273,14.548,21.65,22.804,41.047,18.439c17.441-3.925,29.761-16.717,29.688-29.833H279V384.429l90-12.857v83.53  c-6.89-2.353-15.127-2.843-23.559-0.945c-19.397,4.364-32.468,19.695-29.194,34.243c3.272,14.548,21.65,22.804,41.047,18.439  c17.444-3.925,29.765-16.721,29.688-29.839H387V369v-45L261,342z"/>
</svg>