<svg xmlns="http://www.w3.org/2000/svg" xmlns:xlink="http://www.w3.org/1999/xlink" version="1.1" id="Layer_1" x="0px" y="0px" width="77.2727272727px" height="100px" viewBox="0 0 612 792" enable-background="new 0 0 612 792" xml:space="preserve">
<path fill="#000000" d="M372.728,162H126v468h360V275.272L372.728,162z M378,192.728L455.272,270H378V192.728z M144,612V180h216v108  h108v324H144z"/>
<path fill="#000000" d="M360,405v-36c0-4.95-4.05-9-9-9H207c-4.95,0-9,4.05-9,9v90c0,4.95,4.05,9,9,9h144c4.95,0,9-4.05,9-9v-36  l54,36v-90L360,405z"/>
</svg>