<?xml version="1.0" encoding="utf-8"?>
<!-- Generator: Adobe Illustrator 14.0.0, SVG Export Plug-In . SVG Version: 6.00 Build 43363)  -->
<!DOCTYPE svg PUBLIC "-//W3C//DTD SVG 1.0//EN" "http://www.w3.org/TR/2001/REC-SVG-20010904/DTD/svg10.dtd">
<svg version="1.0" id="Layer_1" xmlns="http://www.w3.org/2000/svg" xmlns:xlink="http://www.w3.org/1999/xlink" x="0px" y="0px"
	 width="87.422px" height="99.575px" viewBox="0 0 87.422 99.575" enable-background="new 0 0 87.422 99.575" xml:space="preserve">
<path id="path4870" d="M0,6.379h37.01v3.588h-3.59v3.952L0,16.825V6.379z"/>
<path id="path4872" d="M52.543,17.072c4.713,0,8.522-3.798,8.522-8.525c0-4.711-3.81-8.547-8.522-8.547
	c-4.728,0-8.549,3.836-8.549,8.547C43.995,13.274,47.815,17.072,52.543,17.072"/>
<path id="path4874" d="M58.999,16.593c2.441-2.415,6.38-2.415,8.821,0l18.466,18.441c0.711,0.709,1.136,1.691,1.136,2.75v55.332
	c0,3.812-3.072,6.885-6.882,6.885s-6.937-3.073-6.937-6.885V47.47L56.391,30.243l-6.882,6.883c-0.775,0.931-1.937,1.539-3.281,1.539
	c-1.228,0-2.336-0.529-3.125-1.384L31.248,25.401c-1.51-1.794-1.382-4.518,0.402-6.03c1.793-1.51,4.466-1.253,5.978,0.53
	l9.014,9.051L58.999,16.593z"/>
<path id="path4876" d="M23.102,19.215c-0.168-0.827-0.902-1.433-1.757-1.433c-0.891,0-1.614,0.632-1.768,1.485l-2.88,16.478v63.83
	h24.366v-9.051H26.109l-0.103-54.779L23.102,19.215z"/>
</svg>
