<?xml version="1.0" encoding="UTF-8" standalone="no"?>
<!-- Created with Inkscape (http://www.inkscape.org/) -->
<svg xmlns:dc="http://purl.org/dc/elements/1.1/" xmlns:cc="http://web.resource.org/cc/" xmlns:rdf="http://www.w3.org/1999/02/22-rdf-syntax-ns#" xmlns:svg="http://www.w3.org/2000/svg" xmlns="http://www.w3.org/2000/svg" xmlns:sodipodi="http://sodipodi.sourceforge.net/DTD/sodipodi-0.dtd" xmlns:inkscape="http://www.inkscape.org/namespaces/inkscape" width="744.09448819" height="1052.3622047" id="svg2" sodipodi:version="0.32" inkscape:version="0.45.1" sodipodi:docbase="D:\Documents and Settings\shyamal\Desktop\BirdIllustrations" sodipodi:docname="Coucal.svg" inkscape:output_extension="org.inkscape.output.svg.inkscape">
  <defs id="defs4"/>
  <sodipodi:namedview id="base" pagecolor="#ffffff" bordercolor="#666666" borderopacity="1.0" gridtolerance="10000" guidetolerance="10" objecttolerance="10" inkscape:pageopacity="0.0" inkscape:pageshadow="2" inkscape:zoom="0.422015" inkscape:cx="1028.5277" inkscape:cy="522.68722" inkscape:document-units="px" inkscape:current-layer="layer1" inkscape:window-width="1280" inkscape:window-height="744" inkscape:window-x="-4" inkscape:window-y="-4"/>
  <metadata id="metadata7">
    <rdf:RDF>
      <cc:Work rdf:about="">
        <dc:format>image/svg+xml</dc:format>
        <dc:type rdf:resource="http://purl.org/dc/dcmitype/StillImage"/>
      </cc:Work>
    </rdf:RDF>
  </metadata>
  <g inkscape:label="Layer 1" inkscape:groupmode="layer" id="layer1">
    <g id="g5184" transform="translate(-819.87606,-523.67806)">
      <path sodipodi:nodetypes="cczzsscccscsscccsssc" id="path2246" d="M 934.95629,740.71009 L 921.5519,774.22106 C 921.5519,774.22106 947.9418,775.05884 953.38733,811.08314 C 958.83286,847.10744 935.79408,867.63293 945.00959,914.96717 C 954.22509,962.30142 966.07716,964.66201 995.27601,1000.4201 C 1033.2261,1046.8954 1032.5569,1053.6189 1043.8669,1069.1177 C 1055.1769,1084.6165 1062.298,1095.9265 1062.298,1095.9265 L 1095.8089,1075.8199 L 1092.4578,1065.7666 C 1092.4578,1065.7666 1115.4966,1067.0233 1132.671,1072.4688 C 1149.8454,1077.9143 1161.1553,1087.5487 1161.1553,1087.5487 C 1161.1553,1087.5487 1256.7505,1221.4206 1316.3367,1305.0128 C 1386.0708,1402.8414 1440.8019,1406.4787 1481.1852,1400.8764 C 1553.6527,1390.8231 1509.6695,1327.1522 1509.6695,1327.1522 L 1265.0394,1062.4155 C 1265.0394,1062.4155 1295.947,1067.6071 1271.7416,1028.9045 C 1227.5479,954.45952 1162.093,894.99049 1099.16,836.21637 C 1074.4562,813.14516 1085.3561,782.60909 1067.3246,764.16776 C 1049.2931,745.72644 1037.5836,731.91345 1005.3292,727.30569 C 973.07497,722.69793 934.95629,740.71009 934.95629,740.71009 z " style="fill:#1a1a1a;fill-rule:evenodd;stroke:#000000;stroke-width:1px;stroke-linecap:butt;stroke-linejoin:miter;stroke-opacity:1"/>
      <path sodipodi:nodetypes="cscccsc" id="path2236" d="M 862.90769,780.92326 C 862.90769,780.92326 871.70432,764.16776 888.04092,754.11447 C 904.37753,744.06118 934.9563,740.71009 934.9563,740.71009 L 928.2541,752.43893 L 956.73843,757.46557 C 956.73843,757.46557 921.5519,759.9789 898.09422,765.84332 C 874.63653,771.70774 862.90769,780.92326 862.90769,780.92326 z " style="fill:#4d4d4d;fill-rule:evenodd;stroke:#000000;stroke-width:1px;stroke-linecap:butt;stroke-linejoin:miter;stroke-opacity:1"/>
      <path sodipodi:nodetypes="cccccsc" id="path2238" d="M 867.93434,777.57216 L 921.5519,775.89661 L 950.03623,784.27436 L 939.98294,772.54551 L 960.08953,757.46558 C 960.08953,757.46558 917.78192,759.14112 894.74312,764.16777 C 871.70432,769.19442 867.93434,777.57216 867.93434,777.57216 z " style="fill:#4d4d4d;fill-rule:evenodd;stroke:#000000;stroke-width:1px;stroke-linecap:butt;stroke-linejoin:miter;stroke-opacity:1"/>
      <g transform="matrix(0.4359008,0,0,0.4473735,733.07219,164.74692)" id="g2256">
        <path sodipodi:type="arc" style="opacity:0.61000007;fill:#4d4d4d;fill-opacity:1;fill-rule:nonzero;stroke:#e21111;stroke-width:0;stroke-linecap:round;stroke-linejoin:round;stroke-miterlimit:4;stroke-dasharray:none;stroke-dashoffset:0;stroke-opacity:1" id="path2248" sodipodi:cx="568.84888" sodipodi:cy="1330.5033" sodipodi:rx="32.673203" sodipodi:ry="31.83543" d="M 601.50517,1331.5274 A 32.673203,31.83543 0 1 1 601.51817,1330.9955" sodipodi:start="0.032172804" sodipodi:end="6.2986478" sodipodi:open="true"/>
        <path sodipodi:type="arc" style="opacity:1;fill:#ff0000;fill-opacity:1;fill-rule:nonzero;stroke:#e21111;stroke-width:0;stroke-linecap:round;stroke-linejoin:round;stroke-miterlimit:4;stroke-dasharray:none;stroke-dashoffset:0;stroke-opacity:1" id="path2250" sodipodi:cx="704.5683" sodipodi:cy="1236.6726" sodipodi:rx="25.971008" sodipodi:ry="25.133234" d="M 730.52587,1237.4811 A 25.971008,25.133234 0 1 1 730.5362,1237.0612" sodipodi:start="0.032172804" sodipodi:end="6.2986478" sodipodi:open="true" transform="translate(-135.71946,93.830739)"/>
        <path sodipodi:type="arc" style="opacity:1;fill:#241c1c;fill-opacity:1;fill-rule:nonzero;stroke:#e21111;stroke-width:0;stroke-linecap:round;stroke-linejoin:round;stroke-miterlimit:4;stroke-dasharray:none;stroke-dashoffset:0;stroke-opacity:1" id="path2252" sodipodi:cx="676.92175" sodipodi:cy="1375.7432" sodipodi:rx="13.404391" sodipodi:ry="15.07994" d="M 690.31921,1376.2282 A 13.404391,15.07994 0 1 1 690.32454,1375.9763" sodipodi:start="0.032172804" sodipodi:end="6.2986478" sodipodi:open="true" transform="translate(-108.91068,-45.239821)"/>
        <path sodipodi:type="arc" style="opacity:1;fill:#ffffff;fill-opacity:1;fill-rule:nonzero;stroke:#e21111;stroke-width:0;stroke-linecap:round;stroke-linejoin:round;stroke-miterlimit:4;stroke-dasharray:none;stroke-dashoffset:0;stroke-opacity:1" id="path2254" sodipodi:cx="244.63014" sodipodi:cy="1135.3019" sodipodi:rx="10.053293" sodipodi:ry="10.891068" d="M 254.67823,1135.6522 A 10.053293,10.891068 0 1 1 254.68223,1135.4703" sodipodi:start="0.032172804" sodipodi:end="6.2986478" sodipodi:open="true" transform="translate(313.32765,182.63483)"/>
      </g>
      <path sodipodi:nodetypes="cccsssssssccccc" id="path2262" d="M 1079.0535,1084.1976 L 1087.4312,1097.602 L 1017.0582,1149.544 C 1017.0582,1149.544 1045.9614,1152.4763 1055.5958,1157.9218 C 1065.2302,1163.3673 1060.6225,1169.6507 1055.5958,1171.3262 C 1050.5692,1173.0017 1049.3125,1167.9751 1035.4892,1164.624 C 1021.6659,1161.2729 1018.3148,1158.7596 1000.3027,1157.9218 C 982.29055,1157.084 976.84501,1157.9218 963.44062,1161.2729 C 950.03623,1164.624 955.68504,1171.3981 950.23951,1170.1414 C 944.79397,1168.8847 937.05072,1162.5295 941.65848,1156.2462 C 946.26624,1149.9629 965.11617,1146.1929 965.11617,1146.1929 L 1008.6804,1144.5174 L 1069.0002,1099.2775 L 1065.6491,1090.8998 L 1079.0535,1084.1976 z " style="fill:#1a1a1a;fill-rule:evenodd;stroke:#000000;stroke-width:1px;stroke-linecap:butt;stroke-linejoin:miter;stroke-opacity:1"/>
      <path sodipodi:nodetypes="cscscsccc" id="path2269" d="M 1099.1602,851.35293 C 1075.2443,851.39802 1043.3638,852.43858 1022.6289,856.91543 C 985.76682,864.87429 984.09765,883.72793 984.09765,883.72793 C 984.09764,883.72795 974.86283,908.43776 985.7539,935.66543 C 996.64498,962.89311 991.63584,967.50094 1027.6602,992.63418 C 1100.2766,1034.0853 1183.7439,1044.3808 1264.7227,1059.0091 C 1303.1023,1065.9421 1262.2922,1020.6766 1253.8615,1002.6838 C 1214.9733,937.17595 1174.1376,905.64452 1118.8789,853.21598 C 1113.4934,853.10993 1106.7723,851.33858 1099.1602,851.35293 z " style="fill:#953e0f;fill-opacity:1;fill-rule:evenodd;stroke:#000000;stroke-width:0;stroke-linecap:butt;stroke-linejoin:miter;stroke-miterlimit:4;stroke-dasharray:none;stroke-opacity:1"/>
      <path sodipodi:nodetypes="ccscsc" id="path2271" d="M 941.31724,1156.6239 L 941.90964,1163.7326 C 941.90964,1163.7326 934.20849,1161.0668 930.06172,1164.325 C 925.91495,1167.5832 925.32255,1176.7653 925.32255,1176.7653 C 925.32255,1176.7653 921.91628,1166.3983 925.91495,1161.363 C 929.91362,1156.3277 941.31724,1156.6239 941.31724,1156.6239 z " style="fill:#666666;fill-rule:evenodd;stroke:#000000;stroke-width:0;stroke-linecap:butt;stroke-linejoin:miter;stroke-miterlimit:4;stroke-dasharray:none;stroke-opacity:1"/>
      <path sodipodi:nodetypes="cscscc" id="path3244" d="M 1062.166,1163.7326 C 1062.166,1163.7326 1067.0533,1159.5858 1069.8672,1162.5478 C 1072.6811,1165.5098 1073.4215,1175.5806 1073.4215,1175.5806 C 1073.4215,1175.5806 1071.052,1169.0642 1067.4976,1167.287 C 1063.9432,1165.5098 1059.204,1168.4718 1059.204,1168.4718 L 1062.166,1163.7326 z " style="fill:#4d4d4d;fill-rule:evenodd;stroke:#000000;stroke-width:0;stroke-linecap:butt;stroke-linejoin:miter;stroke-miterlimit:4;stroke-dasharray:none;stroke-opacity:1"/>
    </g>
  </g>
</svg>